<?xml version="1.0" standalone="no"?>
<!DOCTYPE svg PUBLIC "-//W3C//DTD SVG 20010904//EN"
 "http://www.w3.org/TR/2001/REC-SVG-20010904/DTD/svg10.dtd">
<svg version="1.0" xmlns="http://www.w3.org/2000/svg"
 width="512.000000pt" height="512.000000pt" viewBox="0 0 512.000000 512.000000"
 preserveAspectRatio="xMidYMid meet">

<g transform="translate(0.000000,512.000000) scale(0.100000,-0.100000)"
fill="#FFFFFF" stroke="none">
<path d="M2908 4530 c-88 -27 -140 -92 -146 -184 -3 -50 1 -69 20 -106 89
-166 334 -134 378 49 35 149 -107 285 -252 241z"/>
<path d="M2614 4081 c-58 -27 -80 -60 -104 -162 -23 -100 -100 -541 -100 -576
l0 -23 210 0 c209 0 210 0 215 23 2 12 12 74 20 137 20 143 25 170 33 170 4 0
29 -38 56 -85 91 -157 148 -197 415 -288 85 -28 158 -59 162 -67 4 -8 11 -45
17 -83 12 -82 57 -180 107 -236 52 -57 147 -102 230 -109 l66 -5 -7 52 c-4 32
-2 69 5 94 26 94 84 263 97 285 20 31 51 28 120 -15 101 -62 142 -81 196 -88
41 -6 66 -18 123 -61 40 -30 75 -54 78 -54 12 0 162 133 165 146 3 13 -121
189 -262 369 -43 55 -107 124 -142 152 -35 29 -68 63 -75 74 -7 15 -10 61 -7
136 4 111 4 113 -17 113 -31 0 -89 -45 -170 -131 -38 -41 -102 -96 -142 -122
-72 -48 -171 -144 -303 -294 -40 -46 -75 -83 -78 -83 -3 0 -85 41 -183 92
l-178 91 -30 56 c-16 31 -52 115 -80 186 -28 72 -60 145 -71 162 -22 37 -124
116 -185 144 -51 24 -129 24 -181 0z"/>
<path d="M2365 3186 c-17 -41 -20 -173 -5 -228 6 -21 22 -51 35 -67 42 -48
215 -149 407 -237 228 -103 229 -105 169 -197 -60 -92 -78 -149 -96 -289 -24
-192 -33 -224 -82 -286 -44 -57 -52 -83 -30 -102 25 -23 352 -168 361 -160 17
16 -4 56 -74 142 -39 47 -72 95 -72 105 -3 41 145 469 199 574 61 119 70 173
36 229 -10 18 -74 73 -143 123 -143 105 -152 114 -200 193 -30 51 -35 68 -40
143 l-5 86 -223 3 -223 2 -14 -34z"/>
<path d="M3296 3128 c-71 -49 -154 -84 -240 -100 -99 -19 -97 -24 92 -162 66
-49 132 -105 145 -125 67 -101 62 -178 -19 -340 -32 -63 -79 -180 -104 -260
l-47 -146 137 -3 c113 -2 140 -6 151 -19 11 -13 15 -108 17 -476 3 -449 2
-461 -19 -533 l-22 -75 25 -27 c32 -34 42 -53 61 -120 l16 -52 -568 0 -568 0
-163 357 -162 358 20 65 c29 89 51 200 41 200 -5 0 -35 -17 -67 -39 -31 -21
-85 -53 -119 -70 l-61 -30 -4 -78 -3 -78 107 -185 c116 -197 182 -350 192
-442 l6 -58 -249 0 -249 0 -50 68 c-89 121 -82 77 -70 437 7 225 14 326 23
340 8 12 46 31 96 48 251 85 458 233 575 409 25 37 53 72 62 77 11 6 43 0 92
-15 127 -42 379 -70 394 -46 3 5 12 68 21 141 9 73 22 152 30 176 7 24 10 46
7 49 -3 4 -111 6 -241 6 -227 0 -238 1 -287 24 -94 44 -129 109 -173 327 -11
52 -23 115 -26 142 l-7 47 95 0 95 0 -5 43 c-8 75 1 71 -142 63 -71 -4 -156
-13 -188 -21 -134 -35 -304 -146 -373 -244 -22 -32 -41 -49 -50 -46 -8 2 -58
12 -110 21 -191 33 -324 2 -421 -96 -71 -73 -117 -166 -214 -435 -42 -115 -87
-228 -100 -250 -17 -30 -55 -61 -144 -120 -124 -81 -143 -103 -122 -143 28
-53 280 -38 402 24 105 53 247 237 333 434 57 128 106 202 160 239 82 56 82
56 82 -66 0 -94 5 -121 32 -207 49 -152 41 -218 -43 -331 -25 -33 -56 -76 -69
-95 l-25 -35 34 -302 35 -301 -21 -59 c-16 -49 -19 -73 -14 -158 4 -55 8 -110
11 -122 l4 -23 -308 0 c-262 0 -311 -2 -330 -16 -27 -18 -29 -55 -4 -77 17
-16 162 -17 1885 -17 l1867 0 21 21 c14 14 18 27 14 42 -14 47 -17 47 -411 47
l-372 0 -51 80 -51 81 0 291 c0 290 0 291 25 342 33 68 52 161 67 328 8 99 9
144 1 161 -12 27 -3 51 27 67 15 8 61 -9 235 -86 119 -54 220 -105 225 -114 6
-10 -6 -86 -34 -218 -41 -196 -44 -204 -79 -240 -20 -21 -37 -42 -37 -48 0
-15 167 -177 172 -168 15 26 148 731 148 782 0 40 -162 153 -349 244 l-123 59
5 47 c3 26 17 101 31 167 14 66 26 138 26 160 l0 41 -80 12 c-108 15 -195 58
-271 132 -73 72 -126 175 -135 268 -7 66 -9 68 -69 85 -13 4 -39 -7 -79 -35z"/>
</g>
</svg>
