<?xml version="1.0" encoding="UTF-8"?>
<svg version="1.1" xmlns="http://www.w3.org/2000/svg" width="359" height="294">
<path d="M0 0 C1.0725 0.20496094 2.145 0.40992188 3.25 0.62109375 C16.76379991 3.51434081 28.502501 10.63391429 40 18 C40.94617188 18.53109375 41.89234375 19.0621875 42.8671875 19.609375 C43.57101562 20.06828125 44.27484375 20.5271875 45 21 C45 21.66 45 22.32 45 23 C45.59619141 23.27094482 46.19238281 23.54188965 46.80664062 23.82104492 C48.97022214 24.98399407 50.37351061 26.12885489 52.09375 27.86328125 C52.64933594 28.42080078 53.20492188 28.97832031 53.77734375 29.55273438 C54.34582031 30.13345703 54.91429687 30.71417969 55.5 31.3125 C56.35271484 32.16618164 56.35271484 32.16618164 57.22265625 33.03710938 C66 41.90609593 66 41.90609593 66 45 C66.66 45 67.32 45 68 45 C88.78537826 80.0030337 97.60987056 118.20261873 87.34960938 158.55810547 C79.14086663 189.31827716 62.94699669 216.40818707 36 234 C34.41611201 235.06167298 32.83271086 236.12407298 31.25 237.1875 C30.53714844 237.65671875 29.82429688 238.1259375 29.08984375 238.609375 C27.6940933 239.53813605 26.31106851 240.48630458 24.94140625 241.453125 C3.08798233 256.69037471 -21.69599099 262.36662851 -48 262.375 C-49.94132812 262.37753784 -49.94132812 262.37753784 -51.921875 262.38012695 C-57.77720999 262.31025514 -62.4655959 262.01858236 -68 260 C-71.44622733 259.23639278 -74.90322617 258.55697474 -78.3671875 257.87890625 C-81.69301927 257.07426953 -84.71154049 256.05313802 -87.88818359 254.81420898 C-90.08507498 253.96719942 -92.29699559 253.18767108 -94.5234375 252.421875 C-95.30807373 252.15141357 -96.09270996 251.88095215 -96.90112305 251.60229492 C-98.12569214 251.18040894 -98.12569214 251.18040894 -99.375 250.75 C-106.94044949 248.13311829 -114.41875042 245.35280554 -121.82373047 242.30957031 C-126.08743404 240.5960156 -130.23092079 239.43923582 -134.73242188 238.52734375 C-137.03466628 237.99193807 -139.17450553 237.26467149 -141.39453125 236.45703125 C-168.83179476 227.03419265 -198.23890401 235.92525223 -223.89208984 246.05297852 C-224.87129395 246.43381592 -225.85049805 246.81465332 -226.859375 247.20703125 C-227.73045898 247.5522583 -228.60154297 247.89748535 -229.49902344 248.25317383 C-232.12776902 249.0381536 -234.27253525 249.14028533 -237 249 C-234.27821267 242.87597851 -229.90217184 238.91064227 -224.8046875 234.74609375 C-222.030119 232.06160865 -221.06298269 229.96573455 -220.8125 226.125 C-219.77967206 222.15258484 -218.11855836 221.03794003 -214.97265625 218.5703125 C-209.18407003 213.96236862 -204.47773475 208.38623749 -200.125 202.4375 C-198.16111698 200.18481066 -196.31811454 198.76966947 -193.79296875 197.2109375 C-191.60702569 195.73459251 -189.68841244 194.03145024 -187.6875 192.3125 C-180.53590385 186.50182813 -171.14190261 180.64741542 -162.16015625 178.23828125 C-159.22081241 176.55334093 -158.75273509 174.43617948 -157.83203125 171.28320312 C-157.63996094 170.55037109 -157.44789063 169.81753906 -157.25 169.0625 C-157.04246094 168.33353516 -156.83492188 167.60457031 -156.62109375 166.85351562 C-156.06771903 164.90599361 -155.53288485 162.95322792 -155 161 C-154.67 160.01 -154.34 159.02 -154 158 C-155.051875 158.0825 -156.10375 158.165 -157.1875 158.25 C-166.12887075 158.23409009 -175.39507848 155.01781739 -182 149 C-183.4375 146.1875 -183.4375 146.1875 -184 144 C-175.68204283 142.13344316 -175.68204283 142.13344316 -172.125 141.4375 C-169.82681985 141.00806592 -169.82681985 141.00806592 -167 140 C-168.50626953 139.87044922 -168.50626953 139.87044922 -170.04296875 139.73828125 C-181.33071475 138.6315579 -192.20202219 136.72877912 -201 129 C-202.8125 126.75 -202.8125 126.75 -204 125 C-202 123 -202 123 -198.625 122.9375 C-197.42875 122.958125 -196.2325 122.97875 -195 123 C-193.65852555 122.70111008 -192.3220363 122.37564467 -191 122 C-192.23363281 121.63648438 -192.23363281 121.63648438 -193.4921875 121.265625 C-217.43019528 114.07869426 -217.43019528 114.07869426 -223 104 C-223.53625 103.484375 -224.0725 102.96875 -224.625 102.4375 C-226.28484848 100.70220387 -226.59736483 99.33528396 -227 97 C-222.17639811 96.80705592 -218.50353262 97.24252386 -214 99 C-214.474375 98.38125 -214.94875 97.7625 -215.4375 97.125 C-217 95 -217 95 -218 93 C-217.34 93 -216.68 93 -216 93 C-216 92.34 -216 91.68 -216 91 C-212 92 -212 92 -210.1484375 92.51171875 C-201.64249865 94.44488667 -195.28033491 92.53084673 -188 88 C-184.39016267 85.50578221 -184.39016267 85.50578221 -182 82 C-183.98 82 -185.96 82 -188 82 C-188 81.01 -188 80.02 -188 79 C-186.57096177 77.73712901 -185.13126415 76.48329122 -183.62890625 75.30859375 C-181.8236249 73.91280755 -181.8236249 73.91280755 -179.75 71.6875 C-174.06300709 66.12975693 -167.72122494 61.24498417 -161 57 C-161.33 56.34 -161.66 55.68 -162 55 C-161.01 54.01 -160.02 53.02 -159 52 C-161.97 51.34 -164.94 50.68 -168 50 C-168 49.34 -168 48.68 -168 48 C-137.34358368 30.2874039 -137.34358368 30.2874039 -126 33 C-125.505 32.01 -125.505 32.01 -125 31 C-123.35 31.66 -121.7 32.32 -120 33 C-120 32.34 -120 31.68 -120 31 C-117.87209383 29.21145817 -115.74833436 27.56360672 -113.5 25.9375 C-112.48873047 25.20430542 -112.48873047 25.20430542 -111.45703125 24.45629883 C-99.75713611 16.13418071 -87.48534687 9.8792709 -74 5 C-72.97261719 4.62101562 -71.94523438 4.24203125 -70.88671875 3.8515625 C-47.77753844 -4.29021493 -23.82322997 -5.09184776 0 0 Z " fill="#FEFDF8" transform="translate(256,19)"/>
<path d="M0 0 C1.0725 0.20496094 2.145 0.40992188 3.25 0.62109375 C16.76379991 3.51434081 28.502501 10.63391429 40 18 C40.94617188 18.53109375 41.89234375 19.0621875 42.8671875 19.609375 C43.57101562 20.06828125 44.27484375 20.5271875 45 21 C45 21.66 45 22.32 45 23 C45.59619141 23.27094482 46.19238281 23.54188965 46.80664062 23.82104492 C48.97022214 24.98399407 50.37351061 26.12885489 52.09375 27.86328125 C52.64933594 28.42080078 53.20492187 28.97832031 53.77734375 29.55273438 C54.34582031 30.13345703 54.91429687 30.71417969 55.5 31.3125 C56.35271484 32.16618164 56.35271484 32.16618164 57.22265625 33.03710938 C66 41.90609593 66 41.90609593 66 45 C66.66 45 67.32 45 68 45 C88.50067917 79.52359418 96.89229893 116.04406882 88 156 C87.84241211 156.74169434 87.68482422 157.48338867 87.52246094 158.24755859 C87.08400655 160.18199188 86.54933882 162.09408782 86 164 C85.34 164.33 84.68 164.66 84 165 C83.21655744 166.99291777 82.51983635 169.02051823 81.875 171.0625 C81.34519531 172.71958984 81.34519531 172.71958984 80.8046875 174.41015625 C80.53914062 175.26480469 80.27359375 176.11945313 80 177 C78.44266129 174.57436093 77.90781169 173.48047298 78.4609375 170.59765625 C78.91339844 169.34275391 78.91339844 169.34275391 79.375 168.0625 C80.62918201 164.53443148 81.17456517 161.7531512 81 158 C80.56300781 159.14275391 80.56300781 159.14275391 80.1171875 160.30859375 C77.40662243 167.13614916 74.4178409 173.12847366 70 179 C69.55011719 179.61488281 69.10023438 180.22976562 68.63671875 180.86328125 C59.25226199 192.7855066 45.17339907 198.39620298 30.5390625 200.32421875 C14.04122851 201.14066446 -2.30003309 193.70930135 -14.65234375 183.28515625 C-24.50291429 173.69683052 -30.75450677 162.95879317 -31.5 149.1875 C-32.06682199 143.61786833 -32.06682199 143.61786833 -35.796875 139.66796875 C-39.14292075 137.93059884 -42.52038724 136.44700969 -46 135 C-52.92922573 130.74309195 -57.14831235 123.33665426 -59.5 115.70703125 C-60.69458486 109.23947416 -61.71639641 100.57459461 -58 95 C-57.8040625 96.0415625 -57.608125 97.083125 -57.40625 98.15625 C-54.71835346 111.39040728 -50.11693181 127.50553389 -38.5078125 135.6484375 C-33.31243336 138.72620032 -27.75865537 139.59987232 -21.875 140.625 C-5.56706324 143.56479859 -5.56706324 143.56479859 -0.5 149.6875 C0.08652344 150.38875 0.67304688 151.09 1.27734375 151.8125 C2.92438213 153.9039773 4.49952475 156.03279783 6.0625 158.1875 C9.384301 162.69629122 13.53928341 167.23329757 19 169 C23.40228022 169.42926799 27.19706763 169.53528825 31 167 C29.44298875 163.10747188 26.98565894 160.93857023 23.875 158.1875 C22.89660156 157.31738281 21.91820312 156.44726562 20.91015625 155.55078125 C19.94980469 154.70902344 18.98945313 153.86726562 18 153 C17.17371094 152.27167969 16.34742188 151.54335937 15.49609375 150.79296875 C13.669652 149.18870596 11.8382552 147.59069648 10 146 C10.33 145.34 10.66 144.68 11 144 C11.65484375 144.64066406 12.3096875 145.28132812 12.984375 145.94140625 C20.50860985 153.07242544 29.47293018 161.42099463 40.25 162.25 C44.59006311 161.96066246 47.25798226 161.23081827 51 159 C54.30836994 153.45047623 54.87983049 148.75394342 53.4140625 142.5 C49.97138096 131.38234951 42.52324694 123.8681026 33.46875 116.9375 C23.69940914 109.27042237 10.8086397 95.84162302 9.06396484 83.19921875 C7.80243241 74.11147657 6.02516497 65.9782556 -1.53125 59.99609375 C-4.34763118 57.76080326 -6.24504186 56.15623849 -8 53 C-8.06260925 47.82299804 -6.22136737 42.88285212 -4.60253906 38.02636719 C-3.71416695 35.03873001 -3.34914085 32.09355031 -3 29 C-9.9309521 32.65332428 -16.56852529 36.52178798 -23 41 C-23.66 40.67 -24.32 40.34 -25 40 C-23.68 33.07 -22.36 26.14 -21 19 C-23.23394666 20.73380935 -25.4667496 22.46913034 -27.69140625 24.21484375 C-29.30152071 25.45988996 -30.95012508 26.65603874 -32.625 27.8125 C-36.89699063 31.74722821 -40.34049632 36.83438228 -43.03540039 41.97509766 C-46.20702555 47.76641152 -49.33116793 49.66220525 -55.4375 51.875 C-94.60227009 67.73544161 -117.13732526 112.61279001 -132.75 149.4375 C-133.51011255 151.28754404 -134.26496653 153.13984951 -135 155 C-135.33 155 -135.66 155 -136 155 C-134.60721082 124.77647486 -115.89258845 91.43308256 -94 71 C-93.236875 70.195625 -92.47375 69.39125 -91.6875 68.5625 C-82.081722 59.40350237 -70.44846236 50.88914423 -57 49 C-54.11947828 48.3777725 -52.55332732 47.74626091 -50.78027344 45.35498047 C-48.06220674 40.76893743 -46.00632415 35.92997833 -44 31 C-43.505 30.01 -43.505 30.01 -43 29 C-54.64034811 30.46954561 -65.62368083 32.97614381 -76.375 37.75 C-84.86867359 41.3757579 -90.64358693 39.90874335 -99.3203125 37.8046875 C-117.96098863 33.72827637 -135.72483269 33.90451844 -153.1875 42.23046875 C-155 43 -155 43 -157 43 C-157 43.66 -157 44.32 -157 45 C-158.96466413 46.06775224 -160.96855359 47.06553465 -163 48 C-163.66 47.67 -164.32 47.34 -165 47 C-155.16337747 40.21473793 -141.46861315 31.19346541 -129.0625 32.375 C-128.051875 32.58125 -127.04125 32.7875 -126 33 C-125.505 32.01 -125.505 32.01 -125 31 C-123.35 31.66 -121.7 32.32 -120 33 C-120 32.34 -120 31.68 -120 31 C-117.87209383 29.21145817 -115.74833436 27.56360672 -113.5 25.9375 C-112.48873047 25.20430542 -112.48873047 25.20430542 -111.45703125 24.45629883 C-99.75713611 16.13418071 -87.48534687 9.8792709 -74 5 C-72.97261719 4.62101562 -71.94523437 4.24203125 -70.88671875 3.8515625 C-47.77753844 -4.29021493 -23.82322997 -5.09184776 0 0 Z " fill="#E9DEC6" transform="translate(256,19)"/>
<path d="M0 0 C0 4.13200927 -1.71089728 7.39100057 -3.3125 11.125 C-9.17444453 25.11576145 -12.08023988 37.77554958 -13 53 C-12.20722656 53.01417969 -11.41445312 53.02835938 -10.59765625 53.04296875 C20.16120127 54.3005132 48.34241097 65.36182858 76 78 C91.8789657 85.21482229 107.55960092 91.42812352 125.25 91.3125 C126.16313965 91.30686035 127.0762793 91.3012207 128.01708984 91.29541016 C140.25516241 91.07768154 150.63838827 88.82426392 161 82 C161.85335938 81.45859375 162.70671875 80.9171875 163.5859375 80.359375 C170.56470504 75.42055489 174.16842576 69.35030784 178.1875 62 C178.785625 61.01 179.38375 60.02 180 59 C180.66 59 181.32 59 182 59 C182.19335938 58.28972656 182.38671875 57.57945312 182.5859375 56.84765625 C182.97652344 55.46900391 182.97652344 55.46900391 183.375 54.0625 C183.75785156 52.68771484 183.75785156 52.68771484 184.1484375 51.28515625 C185 49 185 49 187 48 C180.82648961 76.75952399 162.40897031 102.06508731 138 118 C136.41611201 119.06167298 134.83271086 120.12407298 133.25 121.1875 C132.53714844 121.65671875 131.82429688 122.1259375 131.08984375 122.609375 C129.6940933 123.53813605 128.31106851 124.48630458 126.94140625 125.453125 C105.08798233 140.69037471 80.30400901 146.36662851 54 146.375 C52.05867188 146.37753784 52.05867188 146.37753784 50.078125 146.38012695 C44.22279001 146.31025514 39.5344041 146.01858236 34 144 C30.55377267 143.23639278 27.09677383 142.55697474 23.6328125 141.87890625 C20.30698073 141.07426953 17.28845951 140.05313802 14.11181641 138.81420898 C11.91492502 137.96719942 9.70300441 137.18767108 7.4765625 136.421875 C6.69192627 136.15141357 5.90729004 135.88095215 5.09887695 135.60229492 C3.87430786 135.18040894 3.87430786 135.18040894 2.625 134.75 C-4.94044949 132.13311829 -12.41875042 129.35280554 -19.82373047 126.30957031 C-24.08743404 124.5960156 -28.23092079 123.43923582 -32.73242188 122.52734375 C-35.03466628 121.99193807 -37.17450553 121.26467149 -39.39453125 120.45703125 C-66.83179476 111.03419265 -96.23890401 119.92525223 -121.89208984 130.05297852 C-122.87129395 130.43381592 -123.85049805 130.81465332 -124.859375 131.20703125 C-125.73045898 131.5522583 -126.60154297 131.89748535 -127.49902344 132.25317383 C-130.12776902 133.0381536 -132.27253525 133.14028533 -135 133 C-132.27821267 126.87597851 -127.90217184 122.91064227 -122.8046875 118.74609375 C-120.030119 116.06160865 -119.06298269 113.96573455 -118.8125 110.125 C-117.77967206 106.15258484 -116.11855836 105.03794003 -112.97265625 102.5703125 C-107.18407003 97.96236862 -102.47773475 92.38623749 -98.125 86.4375 C-96.16111698 84.18481066 -94.31811454 82.76966947 -91.79296875 81.2109375 C-89.60702569 79.73459251 -87.68841244 78.03145024 -85.6875 76.3125 C-78.29073081 70.30262504 -69.12051204 65.08913477 -60.0703125 62 C-57.84134698 61.18984053 -57.84134698 61.18984053 -57.07421875 59.0546875 C-56.94660156 58.33539063 -56.81898437 57.61609375 -56.6875 56.875 C-56.460625 55.59625 -56.23375 54.3175 -56 53 C-55.34 53.33 -54.68 53.66 -54 54 C-54.33 55.98 -54.66 57.96 -55 60 C-53.948125 59.60167969 -53.948125 59.60167969 -52.875 59.1953125 C-37.86357786 53.60682111 -37.86357786 53.60682111 -30 54 C-29.86464844 53.3915625 -29.72929688 52.783125 -29.58984375 52.15625 C-24.79969964 32.65147159 -14.47830248 13.97590082 0 0 Z " fill="#E4D8BC" transform="translate(154,135)"/>
<path d="M0 0 C23.58315453 11.27369254 49.11066884 18.57180982 74.94433594 10.6315918 C82.7669508 7.60426406 90.02969733 3.6503003 95.94433594 -2.3684082 C96.74871094 -3.1521582 97.55308594 -3.9359082 98.38183594 -4.7434082 C98.89746094 -5.2796582 99.41308594 -5.8159082 99.94433594 -6.3684082 C96.69953791 5.35363704 84.61807467 14.8237569 74.69433594 21.2565918 C52.33857796 33.80113553 22.34877091 34.94543053 -2.01025391 28.5012207 C-19.81283197 23.41762418 -37.16613104 17.13850771 -54.26806641 10.06860352 C-72.19963036 2.77735873 -90.83834429 -1.77717888 -110.24316406 -1.6809082 C-112.01481934 -1.67353638 -112.01481934 -1.67353638 -113.82226562 -1.66601562 C-138.84615898 -1.33261448 -165.17527536 6.50883688 -184.05566406 23.6315918 C-184.38566406 22.9715918 -184.71566406 22.3115918 -185.05566406 21.6315918 C-180.98459446 16.73358618 -176.7663508 12.35195732 -171.91113281 8.22924805 C-168.99595689 5.71912814 -166.30406785 2.99578955 -163.70800781 0.15893555 C-119.39286208 -40.80376417 -47.58503053 -22.89788476 0 0 Z " fill="#FDFCF4" transform="translate(225.0556640625,220.368408203125)"/>
<path d="M0 0 C19.58548689 7.43536076 37.58519753 12.86919275 58.76147461 12.72949219 C59.93774414 12.73722656 61.11401367 12.74496094 62.32592773 12.75292969 C69.97189123 12.73602319 77.20346052 11.98459485 84.69897461 10.47949219 C84.69897461 11.13949219 84.69897461 11.79949219 84.69897461 12.47949219 C45.63026591 30.11432039 8.00187092 31.97065386 -32.18208313 16.9828186 C-35.31419083 15.79609649 -38.44333423 14.60182056 -41.57080078 13.40292358 C-55.94566673 7.91255364 -70.08271429 3.07374414 -85.30102539 0.47949219 C-86.26266602 0.28484375 -87.22430664 0.09019531 -88.21508789 -0.11035156 C-111.63508537 -3.22313604 -137.74254044 1.72844909 -158.30102539 13.47949219 C-158.79602539 14.96449219 -158.79602539 14.96449219 -159.30102539 16.47949219 C-161.36743164 17.20996094 -161.36743164 17.20996094 -163.86352539 17.66699219 C-164.68981445 17.82554687 -165.51610352 17.98410156 -166.36743164 18.14746094 C-167.00551758 18.25703125 -167.64360352 18.36660156 -168.30102539 18.47949219 C-156.60800986 0.57456215 -134.62352542 -9.31470537 -114.26586914 -13.61816406 C-73.40284448 -21.86085744 -38.41900529 -14.59371152 0 0 Z " fill="#FDFBF2" transform="translate(190.301025390625,247.5205078125)"/>
<path d="M0 0 C0 0.33 0 0.66 0 1 C-0.71430176 1.0093457 -1.42860352 1.01869141 -2.16455078 1.02832031 C-21.28340332 1.34250155 -35.6047818 1.67430753 -51 14 C-56.14661756 17.61832824 -61.39226527 21.13891085 -67 24 C-67.66 23.67 -68.32 23.34 -69 23 C-67.35 21.68 -65.7 20.36 -64 19 C-67.5944772 20.72470431 -70.86157026 22.80019492 -74.1953125 24.9765625 C-76 26 -76 26 -78 26 C-78 26.99 -78 27.98 -78 29 C-84.0546875 29.1953125 -84.0546875 29.1953125 -86 29 C-86.66 28.34 -87.32 27.68 -88 27 C-89.98356483 26.28591666 -91.98315437 25.61382258 -94 25 C-91.78789394 29.41661038 -89.46993 31.29041654 -85.1875 33.6875 C-84.17042969 34.26886719 -83.15335938 34.85023437 -82.10546875 35.44921875 C-70.46107241 41.2640934 -55.5581535 40.77276276 -43.3125 36.75 C-38.0656389 34.93443405 -32.89409706 32.85466683 -27.8203125 30.6015625 C-26 30 -26 30 -24 31 C-24.61875 31.2475 -25.2375 31.495 -25.875 31.75 C-28.43605576 33.25650339 -28.71771148 34.37368314 -30 37 C-35.41427153 44.4600048 -43.07222261 51.24542406 -52 54 C-55.40513686 54.52265589 -58.81843919 54.83141626 -62.25 55.125 C-63.15363281 55.21136719 -64.05726562 55.29773438 -64.98828125 55.38671875 C-70.682475 55.90288308 -76.28322389 56.08166823 -82 56 C-82.33 56.66 -82.66 57.32 -83 58 C-83.66 57.34 -84.32 56.68 -85 56 C-83 54 -83 54 -79.625 53.9375 C-78.42875 53.958125 -77.2325 53.97875 -76 54 C-74.65852555 53.70111008 -73.3220363 53.37564467 -72 53 C-72.82242188 52.75765625 -73.64484375 52.5153125 -74.4921875 52.265625 C-98.43019528 45.07869426 -98.43019528 45.07869426 -104 35 C-104.53625 34.484375 -105.0725 33.96875 -105.625 33.4375 C-107.28484848 31.70220387 -107.59736483 30.33528396 -108 28 C-103.17639811 27.80705592 -99.50353262 28.24252386 -95 30 C-95.474375 29.38125 -95.94875 28.7625 -96.4375 28.125 C-98 26 -98 26 -99 24 C-98.34 24 -97.68 24 -97 24 C-97 23.34 -97 22.68 -97 22 C-93 23 -93 23 -91.1484375 23.51171875 C-82.64249865 25.44488667 -76.28033491 23.53084673 -69 19 C-65.39016267 16.50578221 -65.39016267 16.50578221 -63 13 C-64.98 13 -66.96 13 -69 13 C-69 12.01 -69 11.02 -69 10 C-67.58345224 8.7481671 -66.15750598 7.5038764 -64.66796875 6.33984375 C-62.25328386 4.40017884 -60.15669799 2.22013029 -58 0 C-58 3 -58 3 -59.53125 4.82421875 C-60.50578125 5.74654297 -60.50578125 5.74654297 -61.5 6.6875 C-62.47453125 7.62142578 -62.47453125 7.62142578 -63.46875 8.57421875 C-63.9740625 9.04472656 -64.479375 9.51523438 -65 10 C-60.39185852 9.40199691 -56.77743914 7.4201442 -52.75 5.25 C-36.0093355 -3.36036953 -17.9288412 -8.5086026 0 0 Z " fill="#E7DBC1" transform="translate(137,88)"/>
<path d="M0 0 C0.495 0.99 0.495 0.99 1 2 C-0.21484375 4.6015625 -0.21484375 4.6015625 -1.9375 7.625 C-2.50339844 8.62789062 -3.06929688 9.63078125 -3.65234375 10.6640625 C-4.09707031 11.43492188 -4.54179687 12.20578125 -5 13 C-4.37609375 12.37609375 -3.7521875 11.7521875 -3.109375 11.109375 C-1.40625 9.40625 0.296875 7.703125 2 6 C0.56513571 11.02202503 -1.0730822 16.24624843 -5.78710938 19.07080078 C-7.95933573 20.03939838 -10.151918 20.90480566 -12.375 21.75 C-51.5485924 37.96670638 -74.04811296 82.40237015 -89.75 119.4375 C-90.51011255 121.28754404 -91.26496653 123.13984951 -92 125 C-92.33 125 -92.66 125 -93 125 C-91.60721082 94.77647486 -72.89258845 61.43308256 -51 41 C-50.236875 40.195625 -49.47375 39.39125 -48.6875 38.5625 C-39.081722 29.40350237 -27.44846236 20.88914423 -14 19 C-11.10718683 18.3794872 -9.54910109 17.74781502 -7.78027344 15.33886719 C-5.08527317 10.7487727 -3.05091937 5.90246503 -1 1 C-0.67 0.67 -0.34 0.34 0 0 Z " fill="#E4D7BB" transform="translate(213,49)"/>
<path d="M0 0 C0 0.33 0 0.66 0 1 C-0.71430176 1.0093457 -1.42860352 1.01869141 -2.16455078 1.02832031 C-21.28340332 1.34250155 -35.6047818 1.67430753 -51 14 C-56.14661756 17.61832824 -61.39226527 21.13891085 -67 24 C-67.66 23.67 -68.32 23.34 -69 23 C-67.35 21.68 -65.7 20.36 -64 19 C-67.5944772 20.72470431 -70.86157026 22.80019492 -74.1953125 24.9765625 C-76 26 -76 26 -78 26 C-78 26.99 -78 27.98 -78 29 C-84.0546875 29.1953125 -84.0546875 29.1953125 -86 29 C-86.66 28.34 -87.32 27.68 -88 27 C-89.98356483 26.28591666 -91.98315437 25.61382258 -94 25 C-92.25096572 28.08163182 -90.60058058 30.59946408 -88 33 C-86.33333333 34.66666667 -84.66666667 36.33333333 -83 38 C-84.65 37.67 -86.3 37.34 -88 37 C-87.31292969 37.38671875 -86.62585938 37.7734375 -85.91796875 38.171875 C-85.01691406 38.69265625 -84.11585937 39.2134375 -83.1875 39.75 C-82.29417969 40.26046875 -81.40085937 40.7709375 -80.48046875 41.296875 C-78.02069389 42.98579128 -76.62165166 44.52172836 -75 47 C-91.67820058 46.0082138 -91.67820058 46.0082138 -97.44921875 39.87890625 C-97.96097656 39.25886719 -98.47273438 38.63882813 -99 38 C-99.52207031 37.43152344 -100.04414062 36.86304688 -100.58203125 36.27734375 C-104 32.44507576 -104 32.44507576 -104 30 C-101.03 30.66 -98.06 31.32 -95 32 C-95.66 30.02 -96.32 28.04 -97 26 C-97.66 26 -98.32 26 -99 26 C-99 25.34 -99 24.68 -99 24 C-98.34 24 -97.68 24 -97 24 C-97 23.34 -97 22.68 -97 22 C-93 23 -93 23 -91.1484375 23.51171875 C-82.64249865 25.44488667 -76.28033491 23.53084673 -69 19 C-65.39016267 16.50578221 -65.39016267 16.50578221 -63 13 C-64.98 13 -66.96 13 -69 13 C-69 12.01 -69 11.02 -69 10 C-67.58345224 8.7481671 -66.15750598 7.5038764 -64.66796875 6.33984375 C-62.25328386 4.40017884 -60.15669799 2.22013029 -58 0 C-58 3 -58 3 -59.53125 4.82421875 C-60.50578125 5.74654297 -60.50578125 5.74654297 -61.5 6.6875 C-62.47453125 7.62142578 -62.47453125 7.62142578 -63.46875 8.57421875 C-63.9740625 9.04472656 -64.479375 9.51523438 -65 10 C-60.39185852 9.40199691 -56.77743914 7.4201442 -52.75 5.25 C-36.0093355 -3.36036953 -17.9288412 -8.5086026 0 0 Z " fill="#E6DABF" transform="translate(137,88)"/>
<path d="M0 0 C0.66 0.33 1.32 0.66 2 1 C-7.30601643 13.82485389 -18.00308485 22.33384748 -34 25 C-34 25.66 -34 26.32 -34 27 C-32.11683841 28.10836423 -32.11683841 28.10836423 -30 29 C-29.34 28.67 -28.68 28.34 -28 28 C-27.01 28.2165625 -27.01 28.2165625 -26 28.4375 C-16.95829463 30.13281976 -8.78643387 28.31366911 0 26 C-1.72497507 30.6029598 -3.9095871 34.93255824 -6.125 39.3125 C-6.49753906 40.05306641 -6.87007812 40.79363281 -7.25390625 41.55664062 C-8.16744806 43.37201217 -9.08347487 45.18613282 -10 47 C-11.22419163 43.06204091 -10.48320272 40.83887763 -9 37 C-10.051875 37.0825 -11.10375 37.165 -12.1875 37.25 C-21.12887075 37.23409009 -30.39507848 34.01781739 -37 28 C-38.4375 25.1875 -38.4375 25.1875 -39 23 C-30.68204283 21.13344316 -30.68204283 21.13344316 -27.125 20.4375 C-24.82681985 20.00806592 -24.82681985 20.00806592 -22 19 C-23.00417969 18.91363281 -24.00835937 18.82726562 -25.04296875 18.73828125 C-36.40022139 17.62474303 -47.0829124 15.66184858 -56 8 C-55.67 7.34 -55.34 6.68 -55 6 C-54.1646875 6.4640625 -54.1646875 6.4640625 -53.3125 6.9375 C-46.78380338 9.93717142 -39.04897488 9.61164691 -32 10 C-30.32550781 10.11794922 -30.32550781 10.11794922 -28.6171875 10.23828125 C-17.42375786 10.71029334 -8.67496292 6.90053869 0 0 Z " fill="#E7DAC0" transform="translate(111,140)"/>
<path d="M0 0 C1.2065625 0.28488281 2.413125 0.56976563 3.65625 0.86328125 C8.96998632 2.19856293 8.96998632 2.19856293 11 3 C11.495 3.99 11.495 3.99 12 5 C7.4493689 4.57069518 3.36733309 3.8544679 -1 2.5 C-8.21219041 0.41466991 -15.541979 0.2713709 -23 0 C-21.35 0.33 -19.7 0.66 -18 1 C-18 1.33 -18 1.66 -18 2 C-18.83917969 1.97679687 -19.67835937 1.95359375 -20.54296875 1.9296875 C-44.62751627 1.56829022 -64.60273542 6.25268561 -86.8918457 15.05297852 C-87.87113037 15.43381592 -88.85041504 15.81465332 -89.859375 16.20703125 C-90.73045898 16.5522583 -91.60154297 16.89748535 -92.49902344 17.25317383 C-95.12776902 18.0381536 -97.27253525 18.14028533 -100 18 C-98.4722133 14.56247993 -96.49818944 11.81046312 -94 9 C-93.34 9 -92.68 9 -92 9 C-93 11 -94 13 -95 15 C-92.69 14.34 -90.38 13.68 -88 13 C-88.33 12.34 -88.66 11.68 -89 11 C-60.37925411 -3.65729108 -31.29185811 -7.74387206 0 0 Z " fill="#E2D3B8" transform="translate(119,250)"/>
<path d="M0 0 C16.58698383 -0.50776481 30.06920048 1.3361843 45 9 C41.75806374 10.05583665 39.68217521 9.89088405 36.39453125 9.078125 C31.10175654 7.92629933 26.09055589 7.6902339 20.6875 7.75 C19.31392334 7.76341431 19.31392334 7.76341431 17.91259766 7.77709961 C3.91681948 8.01534138 -6.77733012 9.63729354 -17 20 C-18.21084367 20.92044862 -19.44036342 21.81685748 -20.6875 22.6875 C-21.31011719 23.12449219 -21.93273437 23.56148437 -22.57421875 24.01171875 C-23.04472656 24.33785156 -23.51523438 24.66398437 -24 25 C-24.66 24.67 -25.32 24.34 -26 24 C-21.52692892 19.95834187 -17.11723176 16.19826985 -12 13 C-12.33 12.34 -12.66 11.68 -13 11 C-12.01 10.01 -11.02 9.02 -10 8 C-14.455 7.01 -14.455 7.01 -19 6 C-19 5.34 -19 4.68 -19 4 C-16.69 4.33 -14.38 4.66 -12 5 C-12 4.67 -12 4.34 -12 4 C-10.7625 3.67 -9.525 3.34 -8.25 3 C-7.20585938 2.7215625 -7.20585938 2.7215625 -6.140625 2.4375 C-4 2 -4 2 0 2 C0 1.34 0 0.68 0 0 Z " fill="#E5D9BF" transform="translate(107,63)"/>
<path d="M0 0 C0.99 0.495 0.99 0.495 2 1 C-17.26027397 11 -17.26027397 11 -24 11 C-24.33 11.99 -24.66 12.98 -25 14 C-25.99 14 -26.98 14 -28 14 C-28 14.66 -28 15.32 -28 16 C-29.85296835 16.48377991 -31.70744441 16.96178636 -33.5625 17.4375 C-34.59503906 17.70433594 -35.62757813 17.97117187 -36.69140625 18.24609375 C-44.24669826 19.9676656 -51.53499334 20.18286358 -59.25 20.1875 C-60.33796875 20.19974609 -61.4259375 20.21199219 -62.546875 20.22460938 C-64.10921875 20.22750977 -64.10921875 20.22750977 -65.703125 20.23046875 C-67.12093262 20.23663208 -67.12093262 20.23663208 -68.56738281 20.24291992 C-71 20 -71 20 -74 18 C-67.07 17.01 -67.07 17.01 -60 16 C-61.00675781 15.97421875 -62.01351562 15.9484375 -63.05078125 15.921875 C-80.32785214 15.29985884 -96.04969953 11.60012433 -112 5 C-107.93262691 3.34067366 -105.10027762 4.78763572 -101.125 6.25 C-69.50970689 17.44441441 -33.91872309 15.53473644 -3.5 1.5625 C-1.7675 0.7890625 -1.7675 0.7890625 0 0 Z " fill="#E0D1B3" transform="translate(271,261)"/>
<path d="M0 0 C1.37266009 2.74532018 0.43798177 4.30769 -0.48608398 7.1027832 C-0.71755127 7.77011475 -0.94901855 8.43744629 -1.1875 9.125 C-1.42090088 9.80715576 -1.65430176 10.48931152 -1.89477539 11.19213867 C-3.57811668 16.01211932 -5.4365912 20.57397042 -8 25 C-8.44085938 25.763125 -8.88171875 26.52625 -9.3359375 27.3125 C-10.86074955 29.89419235 -12.42900917 32.44619124 -14 35 C-14.76957031 36.31677734 -14.76957031 36.31677734 -15.5546875 37.66015625 C-21.70160439 47.88050849 -29.69178986 56.55343189 -39 64 C-39.66 63.67 -40.32 63.34 -41 63 C-40.2059375 62.31292969 -39.411875 61.62585938 -38.59375 60.91796875 C-37.56211235 60.00825191 -36.5308834 59.09807146 -35.5 58.1875 C-34.97535156 57.73568359 -34.45070313 57.28386719 -33.91015625 56.81835938 C-32.54904577 55.60750135 -31.26846587 54.30759063 -30 53 C-30 52.01 -30 51.02 -30 50 C-27.953125 47.80078125 -27.953125 47.80078125 -25.25 45.3125 C-20.8905729 41.10744355 -18.27464761 37.58322595 -16 32 C-16.53625 32.721875 -17.0725 33.44375 -17.625 34.1875 C-20.2092888 37.247842 -22.87248014 39.51220011 -26 42 C-26.66 41.67 -27.32 41.34 -28 41 C-27.67 40.01 -27.34 39.02 -27 38 C-27 37.01 -27 36.02 -27 35 C-25.23968136 33.67752711 -23.41342875 32.44235859 -21.5625 31.25 C-14.8720083 26.67527931 -11.51553107 21.00314897 -7.7421875 13.96484375 C-7.16726563 12.98644531 -6.59234375 12.00804687 -6 11 C-5.34 11 -4.68 11 -4 11 C-3.79503906 10.28972656 -3.59007812 9.57945312 -3.37890625 8.84765625 C-3.10949219 7.92855469 -2.84007812 7.00945312 -2.5625 6.0625 C-2.29566406 5.14597656 -2.02882813 4.22945312 -1.75390625 3.28515625 C-1 1 -1 1 0 0 Z " fill="#E1D4B7" transform="translate(340,183)"/>
<path d="M0 0 C0.33 0 0.66 0 1 0 C1.29390625 1.56234375 1.29390625 1.56234375 1.59375 3.15625 C4.14230019 15.70432005 8.43161658 31.16296004 18.89453125 39.51171875 C23.20611849 42.15487101 27.06365194 43.86875357 32 45 C30.02 45.495 30.02 45.495 28 46 C29.485 56.395 29.485 56.395 31 67 C28.16964974 64.16964974 27.64033517 60.84841439 27 57 C27.03609375 56.17371094 27.0721875 55.34742188 27.109375 54.49609375 C27.19809058 51.59065838 27.12033443 49.69938846 26 47 C21.96415437 44.03348099 17.52627257 42.1075286 13 40 C6.07402326 35.68633557 1.87081558 28.36785704 -0.50390625 20.70703125 C-1.6924818 14.22133945 -2.09028036 6.27084107 0 0 Z " fill="#E3D7BC" transform="translate(197,114)"/>
<path d="M0 0 C0.92232422 0.23396484 0.92232422 0.23396484 1.86328125 0.47265625 C2.67152344 0.66730469 3.47976562 0.86195312 4.3125 1.0625 C5.51326172 1.35833984 5.51326172 1.35833984 6.73828125 1.66015625 C9.15957179 2.19885554 9.15957179 2.19885554 12 1 C12.20753906 1.75152344 12.41507813 2.50304687 12.62890625 3.27734375 C14.43401465 6.86184676 16.4114517 7.72040689 19.9375 9.5625 C23.88575291 11.63977036 26.60304618 13.18324776 29 17 C12.32179942 16.0082138 12.32179942 16.0082138 6.55078125 9.87890625 C5.78314453 8.94884766 5.78314453 8.94884766 5 8 C4.47792969 7.43152344 3.95585938 6.86304687 3.41796875 6.27734375 C0 2.44507576 0 2.44507576 0 0 Z " fill="#FAF7EC" transform="translate(33,118)"/>
<path d="M0 0 C0 0.33 0 0.66 0 1 C-0.73001221 1.01458252 -1.46002441 1.02916504 -2.2121582 1.04418945 C-5.57942142 1.11951437 -8.94578279 1.21589144 -12.3125 1.3125 C-13.46041016 1.33505859 -14.60832031 1.35761719 -15.79101562 1.38085938 C-22.5033117 1.59002441 -28.39076017 2.36262707 -34.78198242 4.46557617 C-37 5 -37 5 -40 4 C-37.09399739 2.74335022 -35.20395416 2 -32 2 C-32 1.34 -32 0.68 -32 0 C-35.3 0.66 -38.6 1.32 -42 2 C-32.03367838 -7.96632162 -11.37862832 -5.400027 0 0 Z " fill="#E6DBC1" transform="translate(137,88)"/>
<path d="M0 0 C0.66 0.33 1.32 0.66 2 1 C2 4 2 7 2 10 C0.27473958 10.94401042 -1.45052083 11.88802083 -3.17578125 12.83203125 C-5.04097244 13.91388672 -5.04097244 13.91388672 -6.35546875 15.49609375 C-8.65552279 17.59946858 -11.05982709 18.24638329 -14 19.25 C-19.86352078 21.38815187 -24.6785617 24.13998886 -29.7578125 27.7421875 C-30.49773437 28.15726563 -31.23765625 28.57234375 -32 29 C-32.99 28.67 -33.98 28.34 -35 28 C-26.96584064 20.01574225 -17.22542242 14.6020708 -6.75 10.5 C-3.11559852 8.98849355 -3.11559852 8.98849355 -0.87890625 5.91796875 C-0.1930789 3.47186154 -0.1930789 3.47186154 0 0 Z " fill="#EBDFC7" transform="translate(98,188)"/>
<path d="M0 0 C3.4375 0.0625 3.4375 0.0625 7 1 C9.69864245 3.95980139 9.98280616 5.74209242 10.25 9.75 C10 13 10 13 9 14 C5.48687079 14.48793461 4.22944258 14.15643813 1.25 12.125 C-1.50504709 9.52301108 -1.95131419 8.77897299 -2.1875 5 C-2 2 -2 2 0 0 Z " fill="#E5D9BF" transform="translate(289,154)"/>
<path d="M0 0 C13.35160008 -0.28474976 25.27490948 0.81478198 38.2109375 4.4140625 C41.21136373 5.04440414 43.94276051 5.09920246 47 5 C47.495 5.99 47.495 5.99 48 7 C49.64363134 7.72159424 51.31050386 8.39351421 53 9 C53 9.66 53 10.32 53 11 C48.99172934 10.58247181 45.71082072 9.96224558 42 8.375 C38.04152749 6.76855193 35.20415072 7.25809105 31 8 C30.01 7.34 29.02 6.68 28 6 C25.78415454 5.55296766 23.55158039 5.18536758 21.3125 4.875 C20.13300781 4.70742187 18.95351562 4.53984375 17.73828125 4.3671875 C16.38283203 4.18542969 16.38283203 4.18542969 15 4 C15 3.34 15 2.68 15 2 C10.05 1.67 5.1 1.34 0 1 C0 0.67 0 0.34 0 0 Z " fill="#EEE1C6" transform="translate(86,249)"/>
<path d="M0 0 C2.33040299 0.46823339 4.16051533 1.08397457 6.27734375 2.19140625 C18.69473986 8.59156195 34.75552367 7.473961 48 4 C43.33709666 8.66290334 34.84807976 9.06557513 28.5 9.12109375 C26.24290066 9.10908663 23.99346574 9.06467427 21.73803711 8.97705078 C17.65127772 8.7882149 17.65127772 8.7882149 13.88671875 10.1640625 C12 11 12 11 9.0546875 9.98828125 C8.00539063 9.43527344 6.95609375 8.88226563 5.875 8.3125 C4.82054687 7.77238281 3.76609375 7.23226562 2.6796875 6.67578125 C0 5 0 5 -2 2 C0.31 2.66 2.62 3.32 5 4 C4.175 3.525625 3.35 3.05125 2.5 2.5625 C1.675 2.046875 0.85 1.53125 0 1 C0 0.67 0 0.34 0 0 Z " fill="#DFD1B3" transform="translate(48,121)"/>
<path d="M0 0 C2.48117805 3.11451178 4.30984615 6.36945149 6.1875 9.875 C10.97513849 18.11535891 16.24453837 21.88944202 25.3125 24.5546875 C25.869375 24.70164063 26.42625 24.84859375 27 25 C25.68 25.33 24.36 25.66 23 26 C24.485 36.395 24.485 36.395 26 47 C23.16964974 44.16964974 22.64033517 40.84841439 22 37 C22.03609375 36.17371094 22.0721875 35.34742188 22.109375 34.49609375 C22.19809058 31.59065838 22.12033443 29.69938846 21 27 C17.89532434 24.71793071 14.74303956 23.15509529 11.25390625 21.52734375 C7.47558361 19.75384537 4.93279006 17.93279006 2 15 C1.67 14.01 1.34 13.02 1 12 C3 12 3 12 5.625 14.5 C6.40875 15.325 7.1925 16.15 8 17 C7.13375 15.53626953 7.13375 15.53626953 6.25 14.04296875 C5.49965977 12.75801111 4.7496784 11.47284388 4 10.1875 C3.42765625 9.22360352 3.42765625 9.22360352 2.84375 8.24023438 C0 3.33984375 0 3.33984375 0 0 Z " fill="#DDCEAF" transform="translate(202,134)"/>
<path d="M0 0 C-3.20176458 2.61114781 -6.51144355 4.26113653 -10.25 6 C-16.89209856 9.17355602 -22.8117006 13.11707401 -28.75683594 17.44335938 C-33.70379972 21 -33.70379972 21 -37 21 C-35.48940897 16.56008719 -32.00906878 14.61388928 -28.25 12.1875 C-27.58621338 11.7538916 -26.92242676 11.3202832 -26.23852539 10.87353516 C-8.37822859 -0.57954664 -8.37822859 -0.57954664 0 0 Z " fill="#F0EAD0" transform="translate(176,29)"/>
<path d="M0 0 C0.33 1.32 0.66 2.64 1 4 C-3.88182883 6.75385216 -8.55432314 7.97137215 -14 9 C-14 9.66 -14 10.32 -14 11 C-12.11683841 12.10836423 -12.11683841 12.10836423 -10 13 C-9.34 12.67 -8.68 12.34 -8 12 C-8 12.66 -8 13.32 -8 14 C-2.01955594 15.71951285 3.80759538 17.31195504 10 18 C10 18.33 10 18.66 10 19 C1.8104097 20.27486008 -3.80690045 20.27312845 -11 16 C-12.134375 15.360625 -13.26875 14.72125 -14.4375 14.0625 C-17.19716204 11.8413086 -18.06304179 10.37304957 -19 7 C-10.68204283 5.13344316 -10.68204283 5.13344316 -7.125 4.4375 C-4.82681985 4.00806592 -4.82681985 4.00806592 -2 3 C-3.32 2.34 -4.64 1.68 -6 1 C-4.02 0.67 -2.04 0.34 0 0 Z " fill="#EDE2CA" transform="translate(91,156)"/>
<path d="M0 0 C-2.58380297 1.72253531 -4.57509349 2.68493321 -7.44921875 3.7265625 C-8.29677734 4.0359375 -9.14433594 4.3453125 -10.01757812 4.6640625 C-10.89865234 4.98117188 -11.77972656 5.29828125 -12.6875 5.625 C-13.58017578 5.94984375 -14.47285156 6.2746875 -15.39257812 6.609375 C-17.59378688 7.40981455 -19.79626707 8.20654198 -22 9 C-21.37351562 8.7834375 -20.74703125 8.566875 -20.1015625 8.34375 C-19.28429687 8.0653125 -18.46703125 7.786875 -17.625 7.5 C-16.81289063 7.2215625 -16.00078125 6.943125 -15.1640625 6.65625 C-13 6 -13 6 -11 6 C-11 6.66 -11 7.32 -11 8 C-14.89071246 9.51352695 -18.7883283 11.00841565 -22.6875 12.5 C-23.79029297 12.92925781 -24.89308594 13.35851562 -26.02929688 13.80078125 C-27.09599609 14.20683594 -28.16269531 14.61289062 -29.26171875 15.03125 C-30.24100342 15.40830078 -31.22028809 15.78535156 -32.22924805 16.17382812 C-34.98268736 16.99483779 -37.1468479 17.16394809 -40 17 C-38.4722133 13.56247993 -36.49818944 10.81046312 -34 8 C-33.34 8 -32.68 8 -32 8 C-33 10 -34 12 -35 14 C-32.69 13.34 -30.38 12.68 -28 12 C-28.33 11.34 -28.66 10.68 -29 10 C-6.83085639 -0.66105062 -6.83085639 -0.66105062 0 0 Z " fill="#D9C8AD" transform="translate(59,251)"/>
<path d="M0 0 C6.54188826 0.11681943 9.60092683 1.75347802 14.43359375 6.11328125 C16.09389551 8.11309609 16.60177436 9.45920826 17 12 C13.30260672 12.35213269 11.27973042 12.1427196 7.9375 10.4375 C4.46846016 7.55893503 2.42918202 4.7866661 0 1 C0 0.67 0 0.34 0 0 Z " fill="#E2D6B9" transform="translate(228,103)"/>
<path d="M0 0 C0 0.66 0 1.32 0 2 C-0.77085938 2.12117187 -1.54171875 2.24234375 -2.3359375 2.3671875 C-3.33882812 2.53476563 -4.34171875 2.70234375 -5.375 2.875 C-6.87160156 3.11863281 -6.87160156 3.11863281 -8.3984375 3.3671875 C-11.1425115 3.7958802 -11.1425115 3.7958802 -13 6 C-18.5245085 8.18265081 -24.00630473 9.20029207 -29.89453125 9.6796875 C-32.12708958 10.01933459 -33.8333351 10.67479118 -35.875 11.625 C-39 13 -39 13 -42 12 C-32.11477297 7.65499978 -22.47694026 3.56679222 -11.84765625 1.4296875 C-7.47060046 0.41176755 -4.69802747 -0.07577464 0 0 Z " fill="#E9DDC1" transform="translate(75,249)"/>
<path d="M0 0 C-0.56589844 0.33773438 -1.13179688 0.67546875 -1.71484375 1.0234375 C-2.44832031 1.46945312 -3.18179687 1.91546875 -3.9375 2.375 C-4.66839844 2.81585938 -5.39929688 3.25671875 -6.15234375 3.7109375 C-8.13772272 4.8773984 -8.13772272 4.8773984 -9 7 C-10.99365234 7.96142578 -10.99365234 7.96142578 -13.5859375 8.9453125 C-14.98199219 9.47705078 -14.98199219 9.47705078 -16.40625 10.01953125 C-17.3859375 10.38433594 -18.365625 10.74914062 -19.375 11.125 C-20.83292969 11.68380859 -20.83292969 11.68380859 -22.3203125 12.25390625 C-29.60299336 15 -29.60299336 15 -33 15 C-33 14.34 -33 13.68 -33 13 C-32.01 12.67 -31.02 12.34 -30 12 C-29.67 11.34 -29.34 10.68 -29 10 C-26.71323727 9.17604894 -24.45097067 8.44417629 -22.125 7.75 C-15.99658438 5.8434795 -10.66482317 3.41805789 -5.171875 0.0390625 C-3 -1 -3 -1 0 0 Z " fill="#E6DABD" transform="translate(276,262)"/>
<path d="M0 0 C3.90128639 2.85756562 7.71213455 5.69799225 11.25 9 C17.96783799 14.82622563 26.1009532 18.65772897 35 19 C35 19.33 35 19.66 35 20 C31.37 20 27.74 20 24 20 C23.67 21.32 23.34 22.64 23 24 C20.9375 25.25 20.9375 25.25 19 26 C19.66 24.35 20.32 22.7 21 21 C19.0012584 19.14446092 17.00120677 17.29037784 15 15.4375 C14.41001221 14.8904541 13.82002441 14.3434082 13.2121582 13.77978516 C9.32222287 10.18490436 5.37179819 6.68549046 1.29296875 3.3046875 C0 2 0 2 0 0 Z " fill="#E1D3B6" transform="translate(266,163)"/>
<path d="M0 0 C6.11774896 -0.49940808 9.02495953 0.75099398 14 4 C9.82412255 5.39195915 7.86525224 3.82323219 4 2 C8.2811975 9.02116389 13.25416706 14.78831317 21 18 C19.28125 18.66015625 19.28125 18.66015625 17 19 C11.15660331 16.35606875 7.19393985 12.52797281 4 7 C3.443125 6.46375 2.88625 5.9275 2.3125 5.375 C0.69306938 3.67845363 0.3931913 2.28050956 0 0 Z " fill="#E3D4B4" transform="translate(29,116)"/>
<path d="M0 0 C7.85496312 0.30803777 14.04059197 3.53090484 21 7 C17.75959953 8.05534708 15.69117631 7.89040591 12.40625 7.07421875 C7.04211867 5.90523925 1.97310836 5.73569863 -3.5 5.8125 C-4.37269531 5.81314453 -5.24539062 5.81378906 -6.14453125 5.81445312 C-12.14459513 5.85445355 -18.04170995 6.30481283 -24 7 C-19.63616099 4.090774 -15.63649264 3.88522597 -10.48046875 3.68359375 C-8.9480957 3.62075195 -8.9480957 3.62075195 -7.38476562 3.55664062 C-6.32966797 3.51732422 -5.27457031 3.47800781 -4.1875 3.4375 C-3.11306641 3.39431641 -2.03863281 3.35113281 -0.93164062 3.30664062 C1.71212082 3.20089017 4.3559711 3.09879767 7 3 C4.69 2.34 2.38 1.68 0 1 C0 0.67 0 0.34 0 0 Z " fill="#DACAAB" transform="translate(131,65)"/>
<path d="M0 0 C1.60875 0.2784375 1.60875 0.2784375 3.25 0.5625 C6.40391546 0.9304568 8.09818492 1.04465343 11 0 C11 0.66 11 1.32 11 2 C13.475 2.495 13.475 2.495 16 3 C13.94766315 5.2477975 12.99332739 6.0022242 10 7 C9.54625 7.763125 9.0925 8.52625 8.625 9.3125 C5.49229926 14.49350507 -0.12102999 17.55602117 -5 21 C-5.66 20.67 -6.32 20.34 -7 20 C-2.52692892 15.95834187 1.88276824 12.19826985 7 9 C6.67 8.34 6.34 7.68 6 7 C6.99 6.01 7.98 5.02 9 4 C4.545 3.01 4.545 3.01 0 2 C0 1.34 0 0.68 0 0 Z " fill="#EFE8CE" transform="translate(88,67)"/>
<path d="M0 0 C0.66 0.33 1.32 0.66 2 1 C0.92027262 2.4194169 -0.16395863 3.8354083 -1.25 5.25 C-1.85328125 6.03890625 -2.4565625 6.8278125 -3.078125 7.640625 C-4.94204522 9.92885226 -6.80685266 12.02435488 -9 14 C-9.66 14 -10.32 14 -11 14 C-11.33 12.68 -11.66 11.36 -12 10 C-13.98 10.33 -15.96 10.66 -18 11 C-14.92712077 7.92712077 -10.9360325 6.42914009 -7.0546875 4.56640625 C-4.34088722 3.24357055 -2.15117275 2.15117275 0 0 Z " fill="#DFD1B4" transform="translate(111,140)"/>
<path d="M0 0 C1.12921875 0.25265625 2.2584375 0.5053125 3.421875 0.765625 C6.25 1.75 6.25 1.75 8.25 4.75 C10.80183404 5.95450304 10.80183404 5.95450304 13.25 6.75 C9.52968723 7.99010426 8.38208493 7.31902032 4.75 6 C-1.02353583 3.97222156 -6.82935806 2.28843452 -12.75 0.75 C-12.75 0.42 -12.75 0.09 -12.75 -0.25 C-8.0827757 -1.29658969 -4.64462362 -1.09159357 0 0 Z " fill="#EFE6CC" transform="translate(261.75,20.25)"/>
<path d="M0 0 C-1.1858237 3.37503669 -2.27573689 5.64722731 -5 8 C-5.33 7.01 -5.66 6.02 -6 5 C-6.84046875 5.17144531 -7.6809375 5.34289062 -8.546875 5.51953125 C-12.23698405 6.03297403 -15.53692568 5.9521553 -19.25 5.6875 C-20.47203125 5.60886719 -21.6940625 5.53023437 -22.953125 5.44921875 C-26 5 -26 5 -28 3 C-27.04480469 3.03480469 -26.08960937 3.06960937 -25.10546875 3.10546875 C-17.62604638 3.26206683 -11.27566551 2.98138079 -4.07421875 0.65625 C-2 0 -2 0 0 0 Z " fill="#DECFB2" transform="translate(111,166)"/>
<path d="M0 0 C4.95132911 0.62565814 8.17753607 1.247533 11.9375 4.6875 C14.15349701 8.24652551 15.10748724 10.9431238 16 15 C15.34 14.319375 14.68 13.63875 14 12.9375 C11.08909553 10.01827866 7.99175145 7.33531934 4.8671875 4.6484375 C3.17596537 3.15535018 1.57501175 1.61414247 0 0 Z " fill="#E0D2B3" transform="translate(237,93)"/>
<path d="M0 0 C7.5 0.625 7.5 0.625 12 4 C-3.345 4.495 -3.345 4.495 -19 5 C-13.91163251 2.45581625 -9.63421799 2.57504503 -4.01953125 2.34375 C-3.02308594 2.2303125 -2.02664062 2.116875 -1 2 C-0.67 1.34 -0.34 0.68 0 0 Z " fill="#DBCCAC" transform="translate(125,85)"/>
<path d="M0 0 C4.32148187 3.70412732 6.4469701 7.52384673 8.7890625 12.6953125 C9.86927475 15.03683869 9.86927475 15.03683869 11.6484375 16.6171875 C13 18 13 18 13 21 C13.63514826 23.34210921 14.2986716 25.67684969 15 28 C14.34 28 13.68 28 13 28 C12.79246094 27.42894531 12.58492188 26.85789062 12.37109375 26.26953125 C9.93875316 19.86809931 6.92073563 13.95834924 3.5859375 7.98046875 C2.19103221 5.35900881 1.03743222 2.77846945 0 0 Z " fill="#F2E9D1" transform="translate(323,68)"/>
<path d="M0 0 C1 3 1 3 1 5 C1.99 3.68 2.98 2.36 4 1 C3.33392561 5.40958108 1.73375271 9.26572186 -0.0625 13.3125 C-0.34416016 13.95767578 -0.62582031 14.60285156 -0.91601562 15.26757812 C-1.6062743 16.84698358 -2.30253198 18.42376493 -3 20 C-3.33 20 -3.66 20 -4 20 C-3.56615452 12.96871122 -2.25678003 6.670985 0 0 Z " fill="#DDCEAD" transform="translate(124,154)"/>
<path d="M0 0 C-3.39029827 1.8229962 -6.78811748 3.6315081 -10.1875 5.4375 C-11.14720703 5.95376953 -12.10691406 6.47003906 -13.09570312 7.00195312 C-14.49272461 7.74155273 -14.49272461 7.74155273 -15.91796875 8.49609375 C-16.77156982 8.95169678 -17.6251709 9.4072998 -18.50463867 9.87670898 C-21.01579537 11.00711031 -23.28785751 11.57310835 -26 12 C-26 11.34 -26 10.68 -26 10 C-25.0925 9.649375 -24.185 9.29875 -23.25 8.9375 C-18.49659449 6.92532221 -14.17098781 4.20160234 -9.76953125 1.5234375 C-5.91424568 -0.59724144 -4.21950717 -1.40650239 0 0 Z " fill="#E1D2B4" transform="translate(88,207)"/>
<path d="M0 0 C0.95904856 3.83619425 0.91892116 5.32431536 0 9 C0.97582031 8.4225 1.95164063 7.845 2.95703125 7.25 C4.24198889 6.49965977 5.52715612 5.7496784 6.8125 5 C7.45509766 4.6184375 8.09769531 4.236875 8.75976562 3.84375 C13.66015625 1 13.66015625 1 17 1 C8 7 8 7 -1 13 C-1.66 12.67 -2.32 12.34 -3 12 C-2.01 8.04 -1.02 4.08 0 0 Z " fill="#E1D3B4" transform="translate(234,47)"/>
<path d="M0 0 C0.66 0.33 1.32 0.66 2 1 C0.06857324 3.89714014 -0.65656491 4.58406574 -3.5625 6.125 C-6.74546246 7.65140702 -6.74546246 7.65140702 -8 9 C-7.34 9.66 -6.68 10.32 -6 11 C-7.65 12.65 -9.3 14.3 -11 16 C-11.66 15.67 -12.32 15.34 -13 15 C-12.67 14.01 -12.34 13.02 -12 12 C-12 11.01 -12 10.02 -12 9 C-10.03123367 7.30369687 -8.11326838 5.80463882 -6 4.3125 C-5.42765625 3.89677734 -4.8553125 3.48105469 -4.265625 3.05273438 C-2.85003468 2.02643139 -1.42580369 1.01206601 0 0 Z " fill="#DDCEB0" transform="translate(325,209)"/>
<path d="M0 0 C0 4.14618279 -1.7098415 7.43721461 -3.3125 11.1875 C-5.66521613 16.75248408 -7.91281416 22.32927662 -10 28 C-11.10510616 24.68468153 -10.96024836 24.1958456 -9.78515625 21.09375 C-9.51123047 20.34996094 -9.23730469 19.60617188 -8.95507812 18.83984375 C-8.66052734 18.06769531 -8.36597656 17.29554688 -8.0625 16.5 C-7.48664315 14.97034034 -6.91485285 13.43914198 -6.34765625 11.90625 C-6.08992432 11.22884766 -5.83219238 10.55144531 -5.56665039 9.85351562 C-4.85382033 7.84487879 -4.85382033 7.84487879 -5 5 C-2.5 2.3125 -2.5 2.3125 0 0 Z " fill="#DECFAE" transform="translate(154,135)"/>
<path d="M0 0 C-1.74373968 3.01191399 -3.11847904 4.72504283 -6.4921875 5.77734375 C-8.99049108 6.26214204 -11.47590991 6.67726329 -14 7 C-11.4345406 4.4345406 -9.52313332 4.45953913 -6 4 C-6 3.34 -6 2.68 -6 2 C-9.3 2.66 -12.6 3.32 -16 4 C-13.71185277 1.71185277 -12.19248378 1.24548839 -9.125 0.3125 C-8.26132813 0.04050781 -7.39765625 -0.23148437 -6.5078125 -0.51171875 C-3.91305068 -1.01692938 -2.469215 -0.85561171 0 0 Z " fill="#DFD1B4" transform="translate(111,86)"/>
<path d="M0 0 C0 3 0 3 -1.53125 4.82421875 C-2.50578125 5.74654297 -2.50578125 5.74654297 -3.5 6.6875 C-4.1496875 7.31011719 -4.799375 7.93273437 -5.46875 8.57421875 C-5.9740625 9.04472656 -6.479375 9.51523438 -7 10 C-5.68 11.32 -4.36 12.64 -3 14 C-3.99 14.495 -3.99 14.495 -5 15 C-5 14.34 -5 13.68 -5 13 C-6.98 13 -8.96 13 -11 13 C-11 12.01 -11 11.02 -11 10 C-9.58345224 8.7481671 -8.15750598 7.5038764 -6.66796875 6.33984375 C-4.25328386 4.40017884 -2.15669799 2.22013029 0 0 Z " fill="#E9E1C4" transform="translate(79,88)"/>
<path d="M0 0 C0.99 0.33 1.98 0.66 3 1 C2.29875 1.680625 1.5975 2.36125 0.875 3.0625 C-2.27934337 6.20780513 -5.13934304 9.5888386 -8 13 C-8.66 12.34 -9.32 11.68 -10 11 C-8.66666667 9.33333333 -7.33333333 7.66666667 -6 6 C-5.29875 5.0925 -4.5975 4.185 -3.875 3.25 C-2 1 -2 1 0 0 Z " fill="#EBE1C7" transform="translate(60,218)"/>
<path d="M0 0 C6.71938864 4.92173401 13.2153356 9.98394902 19 16 C18.34 16.33 17.68 16.66 17 17 C15.12350746 15.36382122 13.24944102 13.72502333 11.37890625 12.08203125 C9.74796882 10.65462624 8.10953009 9.23576003 6.46484375 7.82421875 C5.65144531 7.11910156 4.83804687 6.41398438 4 5.6875 C3.236875 5.03136719 2.47375 4.37523437 1.6875 3.69921875 C0 2 0 2 0 0 Z " fill="#DBCCAC" transform="translate(266,163)"/>
<path d="M0 0 C0.33 0.66 0.66 1.32 1 2 C0.01 2.61875 -0.98 3.2375 -2 3.875 C-2.99 4.57625 -3.98 5.2775 -5 6 C-5 6.66 -5 7.32 -5 8 C-7.97 9.32 -10.94 10.64 -14 12 C-14.33 11.01 -14.66 10.02 -15 9 C-14.16855469 8.51789063 -13.33710937 8.03578125 -12.48046875 7.5390625 C-11.39378906 6.90742187 -10.30710937 6.27578125 -9.1875 5.625 C-8.10855469 4.99851562 -7.02960938 4.37203125 -5.91796875 3.7265625 C-3.91168907 2.53944654 -1.93965941 1.29310627 0 0 Z " fill="#F6F0DE" transform="translate(74,105)"/>
<path d="M0 0 C2.31 0.66 4.62 1.32 7 2 C4.41377035 4.69398922 1.70147664 7.24053318 -1.0625 9.75 C-2.06990234 10.67039063 -2.06990234 10.67039063 -3.09765625 11.609375 C-5 13 -5 13 -8 13 C-7.25943359 12.34644531 -7.25943359 12.34644531 -6.50390625 11.6796875 C-2.26468018 7.78604896 -2.26468018 7.78604896 -0.0625 2.5625 C-0.041875 1.716875 -0.02125 0.87125 0 0 Z " fill="#DDD1B6" transform="translate(35,245)"/>
<path d="M0 0 C0.66 0.33 1.32 0.66 2 1 C2 4 2 7 2 10 C-2.22222222 13 -2.22222222 13 -5 13 C-5 12.34 -5 11.68 -5 11 C-5.66 10.67 -6.32 10.34 -7 10 C-6.21625 9.835 -5.4325 9.67 -4.625 9.5 C-1.8906529 8.29603101 -1.8906529 8.29603101 -1.22265625 6.0859375 C-0.73586948 4.07483301 -0.36146745 2.037362 0 0 Z " fill="#F0E4CF" transform="translate(98,188)"/>
<path d="M0 0 C0.99 0.33 1.98 0.66 3 1 C3 1.66 3 2.32 3 3 C0.20311339 4.3984433 -2.39056884 4.42264801 -5.5 4.6875 C-6.6653125 4.79449219 -7.830625 4.90148438 -9.03125 5.01171875 C-12 5 -12 5 -14 3 C-8.83430559 1.20782031 -5.48946087 0.87970186 0 2 C0 1.34 0 0.68 0 0 Z " fill="#EDE6D2" transform="translate(130,50)"/>
<path d="M0 0 C0.66 0.33 1.32 0.66 2 1 C-2.4871798 4.96890371 -7.07754818 8.58442119 -12 12 C-12.66 11.67 -13.32 11.34 -14 11 C-9.52692892 6.95834187 -5.11723176 3.19826985 0 0 Z " fill="#EAE0C5" transform="translate(95,76)"/>
<path d="M0 0 C0.66 0.33 1.32 0.66 2 1 C1.38125 1.2475 0.7625 1.495 0.125 1.75 C-2.37818306 3.22246063 -2.83045281 4.41028837 -4 7 C-4.99 7.495 -4.99 7.495 -6 8 C-6 7.01 -6 6.02 -6 5 C-7.1446875 5.5259375 -7.1446875 5.5259375 -8.3125 6.0625 C-11 7 -11 7 -14 6 C-13.07316406 5.65066406 -12.14632812 5.30132812 -11.19140625 4.94140625 C-9.99386719 4.48636719 -8.79632813 4.03132813 -7.5625 3.5625 C-6.36753906 3.11003906 -5.17257813 2.65757813 -3.94140625 2.19140625 C-1.15554277 1.2855174 -1.15554277 1.2855174 0 0 Z " fill="#DCCDAD" transform="translate(111,118)"/>
<path d="M0 0 C0.33 0 0.66 0 1 0 C1.33 3.63 1.66 7.26 2 11 C1.67 11 1.34 11 1 11 C1 13.97 1 16.94 1 20 C-1 18 -1 18 -1.23046875 14.62890625 C-1.22647796 13.2733677 -1.21172505 11.91782794 -1.1875 10.5625 C-1.18685547 9.88123047 -1.18621094 9.19996094 -1.18554688 8.49804688 C-1.15827338 5.40402053 -0.98489776 2.95469327 0 0 Z " fill="#DBCBA8" transform="translate(197,114)"/>
<path d="M0 0 C1.22589844 0.01353516 1.22589844 0.01353516 2.4765625 0.02734375 C3.41628906 0.04474609 3.41628906 0.04474609 4.375 0.0625 C1.36890278 2.06656482 -1.21742695 3.09326258 -4.625 4.25 C-5.676875 4.61480469 -6.72875 4.97960937 -7.8125 5.35546875 C-10.625 6.0625 -10.625 6.0625 -13.625 5.0625 C-11.315 4.4025 -9.005 3.7425 -6.625 3.0625 C-6.625 2.4025 -6.625 1.7425 -6.625 1.0625 C-4.21954362 -0.14022819 -2.67503047 -0.03821472 0 0 Z " fill="#F2EBCF" transform="translate(191.625,21.9375)"/>
<path d="M0 0 C-0.55429687 0.33773438 -1.10859375 0.67546875 -1.6796875 1.0234375 C-2.40414063 1.46945312 -3.12859375 1.91546875 -3.875 2.375 C-4.59429687 2.81585938 -5.31359375 3.25671875 -6.0546875 3.7109375 C-8.11793582 4.9853713 -8.11793582 4.9853713 -10 7 C-12.65537372 7.56520003 -15.29144713 7.73788198 -18 8 C-16.40671016 4.81342032 -13.19977819 3.84375181 -10.125 2.3125 C-9.48691406 1.97927734 -8.84882813 1.64605469 -8.19140625 1.30273438 C-3.36365707 -1.12121902 -3.36365707 -1.12121902 0 0 Z " fill="#F2E9D1" transform="translate(276,262)"/>
<path d="M0 0 C0.33 0 0.66 0 1 0 C1.12462322 5.73266804 0.6416966 11.30494264 0 17 C-0.99 17 -1.98 17 -3 17 C-2.22095672 5.47835991 -2.22095672 5.47835991 0 0 Z " fill="#EFE6CD" transform="translate(342,166)"/>
<path d="M0 0 C1.60463449 0.31008884 3.20869231 0.62316287 4.8125 0.9375 C5.70582031 1.11152344 6.59914062 1.28554688 7.51953125 1.46484375 C10 2 10 2 13 3 C13 3.66 13 4.32 13 5 C8.13103697 4.40380045 3.67209049 3.43023178 -1 2 C-0.67 1.34 -0.34 0.68 0 0 Z " fill="#F0E4C9" transform="translate(173,271)"/>
<path d="M0 0 C0.33 0.66 0.66 1.32 1 2 C-0.98 4.97 -2.96 7.94 -5 11 C-5.99 10.01 -6.98 9.02 -8 8 C-7.236875 7.4225 -6.47375 6.845 -5.6875 6.25 C-3.33799083 4.28296907 -1.70676495 2.51523256 0 0 Z " fill="#F9F5EB" transform="translate(324,214)"/>
<path d="M0 0 C0.99 0.33 1.98 0.66 3 1 C2.16855469 1.68835938 2.16855469 1.68835938 1.3203125 2.390625 C0.59585938 3.00421875 -0.12859375 3.6178125 -0.875 4.25 C-1.59429687 4.85328125 -2.31359375 5.4565625 -3.0546875 6.078125 C-5.08560889 7.8748018 -5.08560889 7.8748018 -6.0703125 10.171875 C-7 12 -7 12 -10 13 C-8.65515286 8.95838045 -6.9494838 6.61321846 -3.875 3.6875 C-3.15054688 2.99011719 -2.42609375 2.29273438 -1.6796875 1.57421875 C-1.12539063 1.05472656 -0.57109375 0.53523437 0 0 Z " fill="#F9F7EB" transform="translate(50,231)"/>
<path d="M0 0 C3.3 0 6.6 0 10 0 C9.56179109 4.55737263 9.14958831 7.57653445 6 11 C6.45822468 7.53058454 6.89131683 4.32604951 8 1 C5.36 1 2.72 1 0 1 C0 0.67 0 0.34 0 0 Z " fill="#F1E9D3" transform="translate(94,176)"/>
<path d="M0 0 C2.12438339 -0.08078641 4.2496323 -0.13909141 6.375 -0.1875 C7.55835937 -0.22230469 8.74171875 -0.25710937 9.9609375 -0.29296875 C11.46527344 -0.14794922 11.46527344 -0.14794922 13 0 C13.66 0.99 14.32 1.98 15 3 C11.7 3.33 8.4 3.66 5 4 C6.32 3.67 7.64 3.34 9 3 C9 2.34 9 1.68 9 1 C6.03 1 3.06 1 0 1 C0 0.67 0 0.34 0 0 Z " fill="#E0D2B6" transform="translate(113,84)"/>
<path d="M0 0 C0.66 0.33 1.32 0.66 2 1 C1.67 1.66 1.34 2.32 1 3 C1.99 3.33 2.98 3.66 4 4 C2.906875 4.309375 1.81375 4.61875 0.6875 4.9375 C-1.55407994 5.58337897 -3.7869351 6.2623117 -6 7 C-6.66 6.34 -7.32 5.68 -8 5 C-2.25 2 -2.25 2 0 2 C0 1.34 0 0.68 0 0 Z " fill="#F7F3E4" transform="translate(99,62)"/>
<path d="M0 0 C0.66 0.66 1.32 1.32 2 2 C0.68 2.33 -0.64 2.66 -2 3 C-2 3.99 -2 4.98 -2 6 C-4.64 6 -7.28 6 -10 6 C-6.98112756 2.51668565 -4.43090471 1.20842856 0 0 Z " fill="#F0E6CF" transform="translate(61,111)"/>
<path d="M0 0 C1.41750563 0.11509661 2.83401169 0.24253658 4.25 0.375 C5.03890625 0.44460938 5.8278125 0.51421875 6.640625 0.5859375 C9.085877 1.01507113 10.84836903 1.78600638 13 3 C13 3.33 13 3.66 13 4 C7.76824163 4.38281159 4.62197306 3.21854707 0 1 C0 0.67 0 0.34 0 0 Z " fill="#F2E6CB" transform="translate(157,267)"/>
<path d="M0 0 C2.97 0.495 2.97 0.495 6 1 C5.67 1.66 5.34 2.32 5 3 C2.93359375 3.6328125 2.93359375 3.6328125 0.4375 4.125 C-0.38878906 4.29257812 -1.21507812 4.46015625 -2.06640625 4.6328125 C-2.70449219 4.75398438 -3.34257812 4.87515625 -4 5 C-2.68 3.35 -1.36 1.7 0 0 Z " fill="#F5F1E0" transform="translate(26,261)"/>
<path d="M0 0 C-1.32338632 0.68620031 -2.65949948 1.34786461 -4 2 C-4.804375 2.391875 -5.60875 2.78375 -6.4375 3.1875 C-9.38988863 4.12362322 -11.05809572 3.84054408 -14 3 C-9.18448679 0.42026078 -5.47161276 -0.12435484 0 0 Z " fill="#DFD0B3" transform="translate(71,248)"/>
<path d="M0 0 C0.66 0.33 1.32 0.66 2 1 C-1.3 3.97 -4.6 6.94 -8 10 C-8.66 9.67 -9.32 9.34 -10 9 C-6.85281112 5.7317654 -3.50647501 2.8689341 0 0 Z " fill="#ECE1C5" transform="translate(309,235)"/>
<path d="M0 0 C3.63 0.33 7.26 0.66 11 1 C10.67 1.99 10.34 2.98 10 4 C9.01 4.33 8.02 4.66 7 5 C6.67 4.34 6.34 3.68 6 3 C4.02111039 2.27306096 2.02045442 1.60183749 0 1 C0 0.67 0 0.34 0 0 Z " fill="#EFE3C9" transform="translate(187,276)"/>
<path d="M0 0 C3 1 3 1 4.1875 3.0625 C4.455625 3.701875 4.72375 4.34125 5 5 C4.01 5.495 4.01 5.495 3 6 C1.35 4.35 -0.3 2.7 -2 1 C-1.34 0.67 -0.68 0.34 0 0 Z " fill="#FAF8EB" transform="translate(77,164)"/>
<path d="M0 0 C0 0.33 0 0.66 0 1 C-1.41377782 1.36552803 -2.83120576 1.71695495 -4.25 2.0625 C-5.03890625 2.25972656 -5.8278125 2.45695312 -6.640625 2.66015625 C-9.10394822 3.01497267 -10.65604132 2.76877544 -13 2 C-12.34 2 -11.68 2 -11 2 C-11 1.34 -11 0.68 -11 0 C-6.94952424 -1.35015859 -4.2079832 -0.62084998 0 0 Z " fill="#F3EAD0" transform="translate(210,19)"/>
<path d="M0 0 C4.455 0.99 4.455 0.99 9 2 C8.67 2.66 8.34 3.32 8 4 C5.36 3.67 2.72 3.34 0 3 C0 2.01 0 1.02 0 0 Z " fill="#ECE1CB" transform="translate(48,133)"/>
<path d="M0 0 C0.66 0.33 1.32 0.66 2 1 C-0.97 4.96 -0.97 4.96 -4 9 C-4.33 7.68 -4.66 6.36 -5 5 C-2.5625 2.25 -2.5625 2.25 0 0 Z " fill="#DACAA8" transform="translate(111,140)"/>
<path d="M0 0 C0.66 0.33 1.32 0.66 2 1 C1.67 1.99 1.34 2.98 1 4 C-2.5625 5.1875 -2.5625 5.1875 -6 6 C-6 5.01 -6 4.02 -6 3 C-4.03533587 1.93224776 -2.03144641 0.93446535 0 0 Z " fill="#F9F6E8" transform="translate(65,111)"/>
<path d="M0 0 C0.66 0 1.32 0 2 0 C0.68775452 3.93673644 -0.91910327 6.22719294 -4 9 C-2.94124926 5.59687262 -1.99097846 2.98646769 0 0 Z " fill="#DCCDAE" transform="translate(321,221)"/>
<path d="M0 0 C3 1 3 1 4 3 C4.99 3.66 5.98 4.32 7 5 C4.69 4.67 2.38 4.34 0 4 C0 2.68 0 1.36 0 0 Z " fill="#FAF7EB" transform="translate(63,145)"/>
<path d="M0 0 C0.66 0.33 1.32 0.66 2 1 C0.68 2.65 -0.64 4.3 -2 6 C-3.32 5.67 -4.64 5.34 -6 5 C-4.00856305 2.01284458 -3.23356015 1.21258505 0 0 Z " fill="#FAF6E9" transform="translate(85,85)"/>
<path d="M0 0 C-2.06756277 2.7972908 -3.14440371 3.02692273 -6.6875 3.6875 C-7.780625 3.790625 -8.87375 3.89375 -10 4 C-6.66064924 0.50886057 -4.84725717 -0.1275594 0 0 Z " fill="#F7F1E1" transform="translate(109,72)"/>
<path d="M0 0 C-1.1858237 3.37503669 -2.27573689 5.64722731 -5 8 C-4.79375 7.38125 -4.5875 6.7625 -4.375 6.125 C-4.25125 5.42375 -4.1275 4.7225 -4 4 C-4.66 3.34 -5.32 2.68 -6 2 C-2.25 0 -2.25 0 0 0 Z " fill="#DBCBAB" transform="translate(111,166)"/>
<path d="M0 0 C0 0.99 0 1.98 0 3 C-0.33 2.34 -0.66 1.68 -1 1 C-2.98 1 -4.96 1 -7 1 C-7.33 0.34 -7.66 -0.32 -8 -1 C-4.37673261 -2.2077558 -3.35853631 -1.54311128 0 0 Z " fill="#EFE5D3" transform="translate(75,100)"/>
<path d="M0 0 C0.33 0.99 0.66 1.98 1 3 C-2 5 -2 5 -4.1875 4.625 C-4.785625 4.41875 -5.38375 4.2125 -6 4 C-4.02 2.68 -2.04 1.36 0 0 Z " fill="#EEE5D1" transform="translate(282,256)"/>
<path d="M0 0 C1.125 1.6875 1.125 1.6875 2 4 C1.125 6.75 1.125 6.75 0 9 C-1.125 7.3125 -1.125 7.3125 -2 5 C-1.125 2.25 -1.125 2.25 0 0 Z " fill="#E7DABD" transform="translate(336,187)"/>
<path d="M0 0 C1.98 0 3.96 0 6 0 C5.01 0.495 5.01 0.495 4 1 C4 1.66 4 2.32 4 3 C4.66 3.33 5.32 3.66 6 4 C3 4 3 4 0 2 C0 1.34 0 0.68 0 0 Z " fill="#F9F4E6" transform="translate(55,144)"/>
<path d="M0 0 C1.48117801 0.28127421 2.95993249 0.57533732 4.4375 0.875 C5.67306641 1.11863281 5.67306641 1.11863281 6.93359375 1.3671875 C7.61550781 1.57601562 8.29742187 1.78484375 9 2 C9.33 2.66 9.66 3.32 10 4 C2.90178571 3.33035714 2.90178571 3.33035714 0 0 Z " fill="#DBCBA8" transform="translate(237,93)"/>
<path d="M0 0 C5.75 0.75 5.75 0.75 8 3 C5.36 3 2.72 3 0 3 C0 2.01 0 1.02 0 0 Z " fill="#D7C5A4" transform="translate(129,86)"/>
<path d="M0 0 C1.32 0.33 2.64 0.66 4 1 C3.01 1.495 3.01 1.495 2 2 C1.34 1.34 0.68 0.68 0 0 Z " fill="#FFFFDD" transform="translate(93,71)"/>
<path d="" fill="#FFFFFF" transform="translate(0,0)"/>
<path d="M0 0 C2 1 2 1 2 1 Z " fill="#FFFFBF" transform="translate(28,118)"/>
<path d="M0 0 C2 1 2 1 2 1 Z " fill="#FFFFD4" transform="translate(91,72)"/>
<path d="" fill="#FFFFFF" transform="translate(0,0)"/>
<path d="" fill="#FFFFFF" transform="translate(0,0)"/>
<path d="" fill="#FFFFFF" transform="translate(0,0)"/>
<path d="" fill="#FFFFFF" transform="translate(0,0)"/>
<path d="" fill="#FFFFFF" transform="translate(0,0)"/>
<path d="" fill="#FFFFFF" transform="translate(0,0)"/>
<path d="" fill="#FFFFFF" transform="translate(0,0)"/>
<path d="" fill="#FFFFFF" transform="translate(0,0)"/>
<path d="" fill="#FFFFFF" transform="translate(0,0)"/>
<path d="" fill="#FFFFFF" transform="translate(0,0)"/>
<path d="" fill="#FFFFFF" transform="translate(0,0)"/>
<path d="" fill="#FFFFFF" transform="translate(0,0)"/>
<path d="" fill="#FFFFFF" transform="translate(0,0)"/>
<path d="" fill="#FFFF7F" transform="translate(0,0)"/>
<path d="" fill="#FFFFFF" transform="translate(0,0)"/>
<path d="" fill="#FFFFFF" transform="translate(0,0)"/>
<path d="" fill="#FFFFFF" transform="translate(0,0)"/>
<path d="" fill="#FFFFFF" transform="translate(0,0)"/>
<path d="" fill="#FFFFFF" transform="translate(0,0)"/>
<path d="" fill="#FFFFFF" transform="translate(0,0)"/>
<path d="" fill="#FFFFFF" transform="translate(0,0)"/>
<path d="" fill="#FFFFFF" transform="translate(0,0)"/>
<path d="" fill="#FFFFFF" transform="translate(0,0)"/>
<path d="" fill="#FFFFFF" transform="translate(0,0)"/>
<path d="" fill="#FFFFFF" transform="translate(0,0)"/>
<path d="" fill="#FFAAAA" transform="translate(0,0)"/>
<path d="" fill="#FFFFFF" transform="translate(0,0)"/>
<path d="" fill="#FFFFFF" transform="translate(0,0)"/>
<path d="" fill="#FFFFFF" transform="translate(0,0)"/>
<path d="" fill="#FFFFFF" transform="translate(0,0)"/>
<path d="" fill="#FFFFFF" transform="translate(0,0)"/>
<path d="" fill="#FFFFFF" transform="translate(0,0)"/>
<path d="" fill="#FFFFFF" transform="translate(0,0)"/>
<path d="" fill="#FFFFFF" transform="translate(0,0)"/>
<path d="" fill="#FFFFFF" transform="translate(0,0)"/>
<path d="" fill="#FFFFFF" transform="translate(0,0)"/>
<path d="" fill="#FFFFFF" transform="translate(0,0)"/>
<path d="" fill="#FFFFFF" transform="translate(0,0)"/>
<path d="" fill="#FFFFFF" transform="translate(0,0)"/>
<path d="" fill="#FFFFFF" transform="translate(0,0)"/>
<path d="" fill="#FFFF7F" transform="translate(0,0)"/>
<path d="" fill="#FFFFFF" transform="translate(0,0)"/>
<path d="" fill="#FFFFFF" transform="translate(0,0)"/>
<path d="" fill="#FFFFFF" transform="translate(0,0)"/>
<path d="" fill="#FFFF7F" transform="translate(0,0)"/>
<path d="" fill="#FFFFFF" transform="translate(0,0)"/>
<path d="" fill="#FFFFFF" transform="translate(0,0)"/>
<path d="" fill="#FFFFFF" transform="translate(0,0)"/>
<path d="" fill="#FFFFFF" transform="translate(0,0)"/>
<path d="" fill="#FFFF00" transform="translate(0,0)"/>
<path d="" fill="#FFFFFF" transform="translate(0,0)"/>
<path d="" fill="#FFFFFF" transform="translate(0,0)"/>
<path d="" fill="#FFFFFF" transform="translate(0,0)"/>
<path d="" fill="#FFFF00" transform="translate(0,0)"/>
<path d="" fill="#FFFFFF" transform="translate(0,0)"/>
<path d="" fill="#FFFF7F" transform="translate(0,0)"/>
<path d="" fill="#FFFF00" transform="translate(0,0)"/>
<path d="" fill="#FFFFFF" transform="translate(0,0)"/>
<path d="" fill="#FFFF00" transform="translate(0,0)"/>
<path d="" fill="#FFFFFF" transform="translate(0,0)"/>
<path d="" fill="#FFFFFF" transform="translate(0,0)"/>
<path d="" fill="#FFFFFF" transform="translate(0,0)"/>
<path d="" fill="#FFFFFF" transform="translate(0,0)"/>
<path d="" fill="#FFFF00" transform="translate(0,0)"/>
</svg>
