<svg xmlns="http://www.w3.org/2000/svg" width="512" height="512" viewBox="0 0 512 512">
  <rect width="512" height="512" fill="#1E63B0"/>
  <g transform="translate(16 16) scale(1.0666666666666667) translate(-150 -300)">
    <svg baseProfile="full" height="1024" version="1.1" width="1536" xmlns="http://www.w3.org/2000/svg" xmlns:ev="http://www.w3.org/2001/xml-events" xmlns:xlink="http://www.w3.org/1999/xlink"><defs /><path d="M 275,557 L 274,558 L 268,558 L 267,559 L 263,559 L 262,560 L 259,560 L 258,561 L 255,561 L 254,562 L 252,562 L 251,563 L 249,563 L 248,564 L 246,564 L 245,565 L 244,565 L 243,566 L 241,566 L 240,567 L 239,567 L 238,568 L 237,568 L 236,569 L 235,569 L 234,570 L 233,570 L 232,571 L 231,571 L 230,572 L 229,572 L 228,573 L 227,573 L 225,575 L 224,575 L 222,577 L 221,577 L 217,581 L 216,581 L 209,588 L 208,588 L 207,589 L 208,589 L 210,587 L 211,587 L 212,586 L 213,586 L 214,585 L 215,585 L 216,584 L 217,584 L 218,583 L 219,583 L 220,582 L 222,582 L 223,581 L 225,581 L 226,580 L 228,580 L 229,579 L 231,579 L 232,578 L 235,578 L 236,577 L 239,577 L 240,576 L 244,576 L 245,575 L 252,575 L 253,574 L 279,574 L 280,575 L 287,575 L 288,576 L 292,576 L 293,577 L 296,577 L 297,578 L 300,578 L 301,579 L 303,579 L 304,580 L 307,580 L 308,581 L 309,581 L 310,582 L 313,582 L 314,583 L 315,583 L 316,584 L 317,584 L 318,585 L 320,585 L 321,586 L 322,586 L 323,587 L 325,587 L 326,588 L 327,588 L 328,589 L 329,589 L 330,590 L 332,590 L 333,591 L 334,591 L 335,592 L 336,592 L 337,593 L 338,593 L 339,594 L 341,594 L 342,595 L 343,595 L 344,596 L 346,596 L 347,597 L 348,597 L 349,598 L 351,598 L 352,599 L 353,599 L 354,600 L 355,600 L 356,601 L 358,601 L 359,602 L 361,602 L 362,603 L 364,603 L 365,604 L 367,604 L 368,605 L 370,605 L 371,606 L 373,606 L 374,607 L 377,607 L 378,608 L 381,608 L 382,609 L 386,609 L 387,610 L 392,610 L 393,611 L 402,611 L 403,612 L 420,612 L 421,611 L 429,611 L 430,610 L 434,610 L 435,609 L 438,609 L 439,608 L 442,608 L 443,607 L 445,607 L 446,606 L 447,606 L 448,605 L 450,605 L 451,604 L 452,604 L 453,603 L 454,603 L 455,602 L 457,602 L 458,601 L 459,601 L 460,600 L 459,601 L 450,601 L 449,602 L 442,602 L 441,601 L 432,601 L 431,600 L 425,600 L 424,599 L 420,599 L 419,598 L 417,598 L 416,597 L 413,597 L 412,596 L 410,596 L 409,595 L 407,595 L 406,594 L 404,594 L 403,593 L 401,593 L 400,592 L 399,592 L 398,591 L 396,591 L 395,590 L 393,590 L 392,589 L 391,589 L 390,588 L 389,588 L 388,587 L 387,587 L 386,586 L 385,586 L 384,585 L 383,585 L 382,584 L 380,584 L 379,583 L 378,583 L 377,582 L 376,582 L 375,581 L 374,581 L 373,580 L 372,580 L 371,579 L 370,579 L 369,578 L 368,578 L 367,577 L 366,577 L 365,576 L 364,576 L 363,575 L 362,575 L 361,574 L 359,574 L 358,573 L 357,573 L 356,572 L 355,572 L 354,571 L 353,571 L 352,570 L 350,570 L 349,569 L 348,569 L 347,568 L 346,568 L 345,567 L 343,567 L 342,566 L 340,566 L 339,565 L 337,565 L 336,564 L 335,564 L 334,563 L 331,563 L 330,562 L 328,562 L 327,561 L 324,561 L 323,560 L 319,560 L 318,559 L 314,559 L 313,558 L 306,558 L 305,557 Z" fill="white" stroke="none" /><path d="M 312,525 L 311,526 L 303,526 L 302,527 L 297,527 L 296,528 L 292,528 L 291,529 L 288,529 L 287,530 L 284,530 L 283,531 L 281,531 L 280,532 L 278,532 L 277,533 L 275,533 L 274,534 L 273,534 L 272,535 L 270,535 L 269,536 L 268,536 L 267,537 L 266,537 L 265,538 L 264,538 L 263,539 L 262,539 L 261,540 L 260,540 L 259,541 L 258,541 L 257,542 L 256,542 L 255,543 L 254,543 L 252,545 L 251,545 L 249,547 L 248,547 L 245,550 L 244,550 L 241,553 L 240,553 L 235,558 L 236,557 L 237,557 L 238,556 L 239,556 L 241,554 L 242,554 L 243,553 L 245,553 L 246,552 L 248,552 L 249,551 L 250,551 L 251,550 L 253,550 L 254,549 L 256,549 L 257,548 L 260,548 L 261,547 L 265,547 L 266,546 L 271,546 L 272,545 L 282,545 L 283,544 L 295,544 L 296,545 L 306,545 L 307,546 L 313,546 L 314,547 L 319,547 L 320,548 L 323,548 L 324,549 L 327,549 L 328,550 L 331,550 L 332,551 L 334,551 L 335,552 L 337,552 L 338,553 L 341,553 L 342,554 L 343,554 L 344,555 L 346,555 L 347,556 L 349,556 L 350,557 L 351,557 L 352,558 L 354,558 L 355,559 L 356,559 L 357,560 L 358,560 L 359,561 L 361,561 L 362,562 L 363,562 L 364,563 L 365,563 L 366,564 L 367,564 L 368,565 L 370,565 L 371,566 L 372,566 L 373,567 L 374,567 L 375,568 L 376,568 L 377,569 L 378,569 L 379,570 L 380,570 L 381,571 L 383,571 L 384,572 L 385,572 L 386,573 L 388,573 L 389,574 L 390,574 L 391,575 L 392,575 L 393,576 L 394,576 L 395,577 L 397,577 L 398,578 L 399,578 L 400,579 L 402,579 L 403,580 L 405,580 L 406,581 L 409,581 L 410,582 L 411,582 L 412,583 L 415,583 L 416,584 L 418,584 L 419,585 L 422,585 L 423,586 L 427,586 L 428,587 L 432,587 L 433,588 L 439,588 L 440,589 L 465,589 L 466,588 L 473,588 L 474,587 L 478,587 L 479,586 L 482,586 L 483,585 L 486,585 L 487,584 L 489,584 L 490,583 L 491,583 L 492,582 L 494,582 L 495,581 L 496,581 L 497,580 L 498,580 L 499,579 L 500,579 L 501,578 L 502,578 L 503,577 L 504,577 L 506,575 L 507,575 L 509,573 L 510,573 L 512,571 L 513,571 L 517,567 L 518,567 L 529,556 L 528,557 L 527,557 L 524,560 L 523,560 L 522,561 L 521,561 L 520,562 L 519,562 L 518,563 L 517,563 L 516,564 L 514,564 L 513,565 L 511,565 L 510,566 L 508,566 L 507,567 L 504,567 L 503,568 L 500,568 L 499,569 L 493,569 L 492,570 L 472,570 L 471,569 L 466,569 L 465,568 L 461,568 L 460,567 L 457,567 L 456,566 L 453,566 L 452,565 L 450,565 L 449,564 L 447,564 L 446,563 L 444,563 L 443,562 L 441,562 L 440,561 L 438,561 L 437,560 L 436,560 L 435,559 L 433,559 L 432,558 L 431,558 L 430,557 L 428,557 L 427,556 L 426,556 L 425,555 L 424,555 L 423,554 L 421,554 L 420,553 L 419,553 L 418,552 L 417,552 L 416,551 L 415,551 L 414,550 L 413,550 L 412,549 L 411,549 L 410,548 L 409,548 L 408,547 L 407,547 L 406,546 L 404,546 L 403,545 L 402,545 L 401,544 L 400,544 L 399,543 L 398,543 L 397,542 L 395,542 L 394,541 L 393,541 L 392,540 L 390,540 L 389,539 L 388,539 L 387,538 L 385,538 L 384,537 L 383,537 L 382,536 L 380,536 L 379,535 L 377,535 L 376,534 L 374,534 L 373,533 L 371,533 L 370,532 L 368,532 L 367,531 L 365,531 L 364,530 L 361,530 L 360,529 L 356,529 L 355,528 L 351,528 L 350,527 L 345,527 L 344,526 L 335,526 L 334,525 Z" fill="white" stroke="none" /><path d="M 474,488 L 474,492 L 475,493 L 475,494 L 476,495 L 476,496 L 477,497 L 478,497 L 479,498 L 481,498 L 481,496 L 474,489 Z" fill="white" stroke="none" /><path d="M 428,427 L 427,428 L 424,428 L 430,434 L 435,434 L 436,435 L 437,435 L 438,436 L 438,434 L 436,432 L 436,431 L 434,429 L 433,429 L 432,428 L 430,428 L 429,427 Z" fill="white" stroke="none" /><path d="M 1227,424 L 1227,425 L 1229,425 L 1232,428 L 1232,429 L 1233,430 L 1233,525 L 1228,530 L 1226,530 L 1227,531 L 1293,531 L 1294,530 L 1300,530 L 1300,529 L 1301,528 L 1301,525 L 1302,524 L 1302,522 L 1303,521 L 1303,520 L 1304,519 L 1304,517 L 1305,516 L 1305,513 L 1305,514 L 1302,517 L 1302,518 L 1299,521 L 1298,521 L 1297,522 L 1296,522 L 1295,523 L 1294,523 L 1293,524 L 1289,524 L 1288,525 L 1253,525 L 1252,524 L 1252,479 L 1253,478 L 1280,478 L 1281,479 L 1282,479 L 1286,483 L 1286,484 L 1287,484 L 1287,483 L 1286,482 L 1286,472 L 1287,471 L 1287,466 L 1286,466 L 1286,467 L 1281,472 L 1253,472 L 1252,471 L 1252,431 L 1253,430 L 1288,430 L 1289,431 L 1290,431 L 1291,432 L 1292,432 L 1293,433 L 1294,433 L 1297,436 L 1297,437 L 1298,438 L 1298,436 L 1297,435 L 1297,431 L 1296,430 L 1296,427 L 1295,426 L 1295,424 Z" fill="white" stroke="none" /><path d="M 1139,424 L 1139,425 L 1141,425 L 1142,426 L 1143,426 L 1144,427 L 1144,428 L 1145,429 L 1145,430 L 1146,431 L 1146,524 L 1145,525 L 1145,526 L 1142,529 L 1141,529 L 1140,530 L 1139,530 L 1146,530 L 1147,531 L 1161,531 L 1162,530 L 1171,530 L 1170,530 L 1168,528 L 1167,528 L 1166,527 L 1166,526 L 1165,525 L 1165,524 L 1164,523 L 1164,480 L 1166,478 L 1190,478 L 1191,479 L 1193,479 L 1198,484 L 1198,466 L 1197,467 L 1197,468 L 1195,470 L 1194,470 L 1192,472 L 1191,472 L 1190,473 L 1165,473 L 1164,472 L 1164,431 L 1165,430 L 1199,430 L 1200,431 L 1202,431 L 1204,433 L 1205,433 L 1208,436 L 1208,437 L 1209,438 L 1209,435 L 1208,434 L 1208,431 L 1207,430 L 1207,427 L 1206,426 L 1206,424 Z" fill="white" stroke="none" /><path d="M 1088,424 L 1088,425 L 1089,425 L 1090,426 L 1091,426 L 1093,428 L 1093,430 L 1094,431 L 1094,524 L 1093,525 L 1093,526 L 1090,529 L 1088,529 L 1087,530 L 1102,530 L 1103,531 L 1111,531 L 1112,530 L 1118,530 L 1117,529 L 1116,529 L 1113,526 L 1113,525 L 1112,524 L 1112,430 L 1113,429 L 1113,428 L 1116,425 L 1118,425 L 1118,424 Z" fill="white" stroke="none" /><path d="M 943,424 L 943,425 L 945,425 L 948,428 L 948,429 L 949,430 L 949,524 L 948,525 L 948,526 L 945,529 L 944,529 L 943,530 L 942,530 L 946,530 L 947,531 L 955,531 L 956,530 L 973,530 L 972,529 L 971,529 L 968,526 L 968,525 L 967,524 L 967,430 L 968,429 L 968,428 L 971,425 L 973,425 L 973,424 Z" fill="white" stroke="none" /><path d="M 826,424 L 826,425 L 828,425 L 832,429 L 832,496 L 833,497 L 833,503 L 834,504 L 834,507 L 835,508 L 835,510 L 836,511 L 836,512 L 837,513 L 837,514 L 838,515 L 838,516 L 841,519 L 841,520 L 844,523 L 845,523 L 848,526 L 849,526 L 850,527 L 851,527 L 852,528 L 853,528 L 854,529 L 856,529 L 857,530 L 859,530 L 860,531 L 863,531 L 864,532 L 883,532 L 884,531 L 887,531 L 888,530 L 890,530 L 891,529 L 893,529 L 894,528 L 895,528 L 897,526 L 898,526 L 900,524 L 901,524 L 907,518 L 907,517 L 909,515 L 909,514 L 910,513 L 910,512 L 911,511 L 911,509 L 912,508 L 912,506 L 913,505 L 913,501 L 914,500 L 914,493 L 915,492 L 915,429 L 919,425 L 921,425 L 921,424 L 900,424 L 900,425 L 902,425 L 903,426 L 904,426 L 906,428 L 906,429 L 907,430 L 907,432 L 908,433 L 907,434 L 907,445 L 908,446 L 908,457 L 907,458 L 907,463 L 908,464 L 908,492 L 907,493 L 907,500 L 906,501 L 906,504 L 905,505 L 905,507 L 904,508 L 904,509 L 903,510 L 903,511 L 902,512 L 902,513 L 894,521 L 893,521 L 892,522 L 891,522 L 890,523 L 889,523 L 888,524 L 885,524 L 884,525 L 872,525 L 871,524 L 869,524 L 868,523 L 866,523 L 865,522 L 864,522 L 861,519 L 860,519 L 858,517 L 858,516 L 855,513 L 855,512 L 854,511 L 854,510 L 853,509 L 853,508 L 852,507 L 852,504 L 851,503 L 851,498 L 850,497 L 850,431 L 851,430 L 851,429 L 852,428 L 852,427 L 853,426 L 854,426 L 855,425 L 856,425 L 856,424 Z" fill="white" stroke="none" /><path d="M 744,422 L 743,423 L 738,423 L 737,424 L 735,424 L 734,425 L 732,425 L 731,426 L 729,426 L 728,427 L 727,427 L 726,428 L 725,428 L 724,429 L 723,429 L 722,430 L 721,430 L 720,431 L 719,431 L 715,435 L 714,435 L 707,442 L 707,443 L 704,446 L 704,447 L 702,449 L 702,450 L 701,451 L 701,452 L 700,453 L 700,455 L 699,456 L 699,457 L 698,458 L 698,460 L 697,461 L 697,464 L 696,465 L 696,472 L 695,473 L 695,483 L 696,484 L 696,490 L 697,491 L 697,494 L 698,495 L 698,497 L 699,498 L 699,500 L 700,501 L 700,502 L 701,503 L 701,504 L 702,505 L 702,506 L 703,507 L 703,508 L 706,511 L 706,512 L 715,521 L 716,521 L 718,523 L 719,523 L 721,525 L 722,525 L 723,526 L 724,526 L 725,527 L 726,527 L 727,528 L 729,528 L 730,529 L 732,529 L 733,530 L 735,530 L 736,531 L 742,531 L 743,532 L 753,532 L 755,534 L 755,535 L 764,544 L 765,544 L 768,547 L 769,547 L 772,550 L 773,550 L 774,551 L 775,551 L 776,552 L 777,552 L 778,553 L 779,553 L 780,554 L 782,554 L 783,555 L 785,555 L 786,556 L 788,556 L 789,557 L 797,557 L 798,558 L 799,557 L 808,557 L 809,556 L 811,556 L 812,555 L 813,555 L 814,554 L 815,554 L 818,551 L 818,550 L 820,548 L 820,545 L 821,544 L 821,542 L 820,541 L 820,539 L 819,538 L 819,537 L 816,534 L 814,534 L 813,533 L 807,533 L 806,534 L 805,534 L 804,535 L 803,535 L 802,536 L 802,537 L 800,539 L 800,540 L 798,542 L 796,542 L 795,543 L 784,543 L 783,542 L 781,542 L 780,541 L 778,541 L 777,540 L 776,540 L 775,539 L 774,539 L 773,538 L 772,538 L 771,537 L 770,537 L 767,534 L 766,534 L 764,532 L 765,531 L 767,531 L 768,530 L 771,530 L 772,529 L 774,529 L 775,528 L 776,528 L 777,527 L 778,527 L 779,526 L 780,526 L 781,525 L 782,525 L 783,524 L 784,524 L 786,522 L 787,522 L 789,520 L 790,520 L 797,513 L 797,512 L 800,509 L 800,508 L 802,506 L 802,505 L 803,504 L 803,503 L 804,502 L 804,501 L 805,500 L 805,499 L 806,498 L 806,496 L 807,495 L 807,493 L 808,492 L 808,488 L 809,487 L 809,467 L 808,466 L 808,462 L 807,461 L 807,459 L 806,458 L 806,456 L 805,455 L 805,454 L 804,453 L 804,451 L 802,449 L 802,448 L 801,447 L 801,446 L 799,444 L 799,443 L 789,433 L 788,433 L 786,431 L 785,431 L 783,429 L 782,429 L 781,428 L 780,428 L 779,427 L 778,427 L 777,426 L 775,426 L 774,425 L 772,425 L 771,424 L 768,424 L 767,423 L 762,423 L 761,422 Z" fill="white" stroke="none" /><path d="M 1015,416 L 1014,417 L 1008,417 L 1007,418 L 999,418 L 998,419 L 995,419 L 997,419 L 998,420 L 999,420 L 1001,422 L 1001,423 L 1002,424 L 1002,425 L 1003,426 L 1003,523 L 1002,524 L 1002,525 L 998,529 L 997,529 L 996,530 L 995,530 L 1002,530 L 1003,531 L 1069,531 L 1070,530 L 1070,527 L 1071,526 L 1071,523 L 1072,522 L 1072,519 L 1073,518 L 1073,517 L 1074,516 L 1074,513 L 1073,514 L 1073,515 L 1066,522 L 1065,522 L 1064,523 L 1062,523 L 1061,524 L 1029,524 L 1028,525 L 1024,525 L 1022,523 L 1022,423 L 1023,422 L 1023,421 L 1024,420 L 1024,419 L 1026,417 L 1028,417 L 1028,416 Z" fill="white" stroke="none" /><path d="M 595,409 L 595,410 L 596,410 L 597,411 L 598,411 L 601,414 L 601,416 L 602,417 L 602,524 L 597,529 L 596,529 L 595,530 L 594,530 L 601,530 L 602,531 L 668,531 L 669,530 L 675,530 L 675,528 L 676,527 L 676,525 L 677,524 L 677,522 L 678,521 L 678,519 L 679,518 L 679,516 L 680,515 L 680,513 L 679,513 L 679,514 L 677,516 L 677,517 L 675,519 L 674,519 L 672,521 L 671,521 L 670,522 L 669,522 L 668,523 L 667,523 L 666,524 L 623,524 L 622,523 L 622,472 L 623,471 L 653,471 L 654,472 L 655,472 L 657,474 L 658,474 L 659,475 L 659,476 L 661,478 L 661,458 L 660,458 L 660,459 L 659,460 L 659,461 L 658,462 L 657,462 L 655,464 L 654,464 L 653,465 L 623,465 L 622,464 L 622,417 L 623,416 L 662,416 L 663,417 L 665,417 L 666,418 L 667,418 L 672,423 L 672,424 L 673,425 L 674,425 L 673,424 L 673,420 L 672,419 L 672,416 L 671,415 L 671,412 L 670,411 L 670,410 L 669,409 Z" fill="white" stroke="none" /><path d="M 413,337 L 412,338 L 405,338 L 404,339 L 399,339 L 398,340 L 394,340 L 393,341 L 390,341 L 389,342 L 387,342 L 386,343 L 384,343 L 383,344 L 381,344 L 380,345 L 378,345 L 377,346 L 375,346 L 374,347 L 373,347 L 372,348 L 370,348 L 369,349 L 368,349 L 367,350 L 366,350 L 365,351 L 364,351 L 363,352 L 362,352 L 361,353 L 360,353 L 359,354 L 358,354 L 356,356 L 355,356 L 354,357 L 353,357 L 351,359 L 350,359 L 348,361 L 347,361 L 345,363 L 344,363 L 341,366 L 340,366 L 326,380 L 317,380 L 316,381 L 310,381 L 309,382 L 304,382 L 303,383 L 300,383 L 299,384 L 297,384 L 296,385 L 294,385 L 293,386 L 292,386 L 291,387 L 289,387 L 288,388 L 287,388 L 286,389 L 285,389 L 284,390 L 283,390 L 282,391 L 281,391 L 280,392 L 279,392 L 277,394 L 276,394 L 275,395 L 274,395 L 272,397 L 271,397 L 269,399 L 270,398 L 272,398 L 273,397 L 275,397 L 276,396 L 293,396 L 294,397 L 297,397 L 298,398 L 302,398 L 303,399 L 306,399 L 307,400 L 310,400 L 311,401 L 312,401 L 313,402 L 312,403 L 292,403 L 291,404 L 287,404 L 286,405 L 283,405 L 282,406 L 280,406 L 279,407 L 278,407 L 277,408 L 275,408 L 274,409 L 273,409 L 272,410 L 271,410 L 270,411 L 269,411 L 268,412 L 267,412 L 266,413 L 265,413 L 263,415 L 262,415 L 259,418 L 258,418 L 248,428 L 248,429 L 246,431 L 249,428 L 250,428 L 252,426 L 253,426 L 254,425 L 256,425 L 257,424 L 259,424 L 260,423 L 262,423 L 263,422 L 269,422 L 270,421 L 287,421 L 288,422 L 296,422 L 297,423 L 297,424 L 296,425 L 292,425 L 291,426 L 287,426 L 286,427 L 284,427 L 283,428 L 281,428 L 280,429 L 278,429 L 277,430 L 276,430 L 275,431 L 274,431 L 273,432 L 272,432 L 271,433 L 270,433 L 269,434 L 268,434 L 267,435 L 266,435 L 265,436 L 264,436 L 263,437 L 262,437 L 261,438 L 260,438 L 259,439 L 258,439 L 257,440 L 256,440 L 255,441 L 254,441 L 253,442 L 251,442 L 250,443 L 249,443 L 248,444 L 246,444 L 245,445 L 242,445 L 241,446 L 236,446 L 235,447 L 227,447 L 226,446 L 224,446 L 225,447 L 227,447 L 228,448 L 229,448 L 230,449 L 232,449 L 233,450 L 235,450 L 236,451 L 238,451 L 239,452 L 242,452 L 243,453 L 247,453 L 248,454 L 256,454 L 257,455 L 267,455 L 268,454 L 275,454 L 276,453 L 281,453 L 282,452 L 284,452 L 285,451 L 287,451 L 288,450 L 289,450 L 290,451 L 288,453 L 287,453 L 286,454 L 285,454 L 283,456 L 282,456 L 279,459 L 278,459 L 266,471 L 265,471 L 262,474 L 261,474 L 259,476 L 258,476 L 257,477 L 256,477 L 255,478 L 254,478 L 253,479 L 251,479 L 250,480 L 245,480 L 245,481 L 248,481 L 249,482 L 252,482 L 253,483 L 260,483 L 261,484 L 269,484 L 270,483 L 275,483 L 276,482 L 280,482 L 281,481 L 283,481 L 284,480 L 285,480 L 286,479 L 287,479 L 288,478 L 290,478 L 291,479 L 289,481 L 289,482 L 288,483 L 288,484 L 286,486 L 286,487 L 285,488 L 285,489 L 283,491 L 283,492 L 282,493 L 282,494 L 281,495 L 281,496 L 273,504 L 272,504 L 271,505 L 275,505 L 276,504 L 282,504 L 283,503 L 285,503 L 286,502 L 287,502 L 288,501 L 289,501 L 290,500 L 291,500 L 293,498 L 295,498 L 296,499 L 296,502 L 297,503 L 297,507 L 297,505 L 298,504 L 298,501 L 299,500 L 299,498 L 300,497 L 300,495 L 301,494 L 301,493 L 302,492 L 302,490 L 303,489 L 303,487 L 304,486 L 304,485 L 305,484 L 305,482 L 306,481 L 306,480 L 307,479 L 307,478 L 308,477 L 308,476 L 309,475 L 309,473 L 310,472 L 310,471 L 311,470 L 311,469 L 312,468 L 312,467 L 313,466 L 313,465 L 314,464 L 314,463 L 315,462 L 315,461 L 316,460 L 316,459 L 318,457 L 318,456 L 319,455 L 319,454 L 320,453 L 320,452 L 322,450 L 322,449 L 323,448 L 323,447 L 324,446 L 324,445 L 326,443 L 326,442 L 328,440 L 328,439 L 330,437 L 330,436 L 332,434 L 332,433 L 334,431 L 334,430 L 337,427 L 337,426 L 341,422 L 341,421 L 347,415 L 347,414 L 361,400 L 362,400 L 363,401 L 359,405 L 359,406 L 354,411 L 354,412 L 350,416 L 350,417 L 347,420 L 347,421 L 345,423 L 345,424 L 343,426 L 343,427 L 341,429 L 341,430 L 339,432 L 339,433 L 337,435 L 337,436 L 336,437 L 336,438 L 334,440 L 334,441 L 333,442 L 333,443 L 331,445 L 331,446 L 330,447 L 330,448 L 329,449 L 329,450 L 327,452 L 327,453 L 326,454 L 326,455 L 325,456 L 325,457 L 324,458 L 324,459 L 323,460 L 323,461 L 322,462 L 322,463 L 321,464 L 321,465 L 320,466 L 320,467 L 319,468 L 319,469 L 318,470 L 318,471 L 317,472 L 317,473 L 316,474 L 316,475 L 315,476 L 315,478 L 314,479 L 314,481 L 313,482 L 313,483 L 312,484 L 312,486 L 311,487 L 311,489 L 310,490 L 310,492 L 309,493 L 309,495 L 308,496 L 308,499 L 307,500 L 307,502 L 306,503 L 306,506 L 305,507 L 305,510 L 304,511 L 304,514 L 305,513 L 312,513 L 313,512 L 323,512 L 323,508 L 324,507 L 324,502 L 325,501 L 325,497 L 326,496 L 326,492 L 327,491 L 327,488 L 328,487 L 328,484 L 329,483 L 329,480 L 330,479 L 330,477 L 331,476 L 331,474 L 332,473 L 332,471 L 333,470 L 333,468 L 334,467 L 334,466 L 335,465 L 335,463 L 336,462 L 336,460 L 337,459 L 337,458 L 338,457 L 338,456 L 339,455 L 339,453 L 340,452 L 340,451 L 341,450 L 341,449 L 342,448 L 342,446 L 343,445 L 343,444 L 344,443 L 344,442 L 345,441 L 345,440 L 346,439 L 346,438 L 347,437 L 347,436 L 348,435 L 348,434 L 349,433 L 349,432 L 350,431 L 350,430 L 352,428 L 352,427 L 353,426 L 353,425 L 354,424 L 354,423 L 356,421 L 356,420 L 358,418 L 358,417 L 361,414 L 361,413 L 363,411 L 363,410 L 366,407 L 366,406 L 369,403 L 369,402 L 376,395 L 376,394 L 385,385 L 386,385 L 395,376 L 396,376 L 399,373 L 400,373 L 402,371 L 403,371 L 404,370 L 407,370 L 408,369 L 412,369 L 413,368 L 416,368 L 417,369 L 417,370 L 415,372 L 415,373 L 414,374 L 414,375 L 413,376 L 413,379 L 412,380 L 412,384 L 411,385 L 411,390 L 412,391 L 412,392 L 415,392 L 416,393 L 420,393 L 420,388 L 422,386 L 423,386 L 424,385 L 425,385 L 432,378 L 433,379 L 433,380 L 434,381 L 434,394 L 433,395 L 433,397 L 432,398 L 432,401 L 433,402 L 434,402 L 437,405 L 438,405 L 441,408 L 442,408 L 446,412 L 447,412 L 450,415 L 451,415 L 454,418 L 454,419 L 455,420 L 455,422 L 456,423 L 456,429 L 457,430 L 457,437 L 458,438 L 458,442 L 459,443 L 459,445 L 461,447 L 461,448 L 464,451 L 464,452 L 466,454 L 466,455 L 469,458 L 469,459 L 472,462 L 472,463 L 474,465 L 474,466 L 477,469 L 477,470 L 480,473 L 480,474 L 485,479 L 485,480 L 492,487 L 492,488 L 494,490 L 494,503 L 493,504 L 493,505 L 492,506 L 492,507 L 491,508 L 491,510 L 490,511 L 490,513 L 488,515 L 488,516 L 484,520 L 483,520 L 482,521 L 479,521 L 478,522 L 476,522 L 475,523 L 472,523 L 471,522 L 469,522 L 468,521 L 467,521 L 465,519 L 464,519 L 458,513 L 457,513 L 451,507 L 450,507 L 447,504 L 446,504 L 445,503 L 444,503 L 443,502 L 442,502 L 441,501 L 440,501 L 439,500 L 437,500 L 436,499 L 435,499 L 434,498 L 432,498 L 431,497 L 429,497 L 428,496 L 426,496 L 425,495 L 423,495 L 422,494 L 420,494 L 419,493 L 417,493 L 416,492 L 414,492 L 413,491 L 400,491 L 399,490 L 396,490 L 395,489 L 394,489 L 393,488 L 391,488 L 390,487 L 389,487 L 386,484 L 385,484 L 378,477 L 378,476 L 375,473 L 375,472 L 374,471 L 374,470 L 373,469 L 373,468 L 372,467 L 372,465 L 371,464 L 371,462 L 370,461 L 370,454 L 370,469 L 371,470 L 371,474 L 372,475 L 372,476 L 373,477 L 373,479 L 375,481 L 375,482 L 377,484 L 377,485 L 381,489 L 382,489 L 384,491 L 385,491 L 387,493 L 388,493 L 389,494 L 390,494 L 391,495 L 393,495 L 394,496 L 396,496 L 397,497 L 400,497 L 401,498 L 404,498 L 405,499 L 406,499 L 407,500 L 408,500 L 412,504 L 412,505 L 414,507 L 414,508 L 415,509 L 415,510 L 416,511 L 416,512 L 418,514 L 418,515 L 419,516 L 419,517 L 421,519 L 421,520 L 423,522 L 423,523 L 434,534 L 435,534 L 439,538 L 440,538 L 443,541 L 444,541 L 445,542 L 446,542 L 448,544 L 449,544 L 450,545 L 451,545 L 452,546 L 453,546 L 454,547 L 455,547 L 456,548 L 457,548 L 458,549 L 460,549 L 461,550 L 462,550 L 463,551 L 465,551 L 466,552 L 469,552 L 470,553 L 473,553 L 474,554 L 481,554 L 482,555 L 497,555 L 498,554 L 503,554 L 504,553 L 507,553 L 508,552 L 510,552 L 511,551 L 512,551 L 513,550 L 514,550 L 515,549 L 516,549 L 517,548 L 518,548 L 519,547 L 520,547 L 521,546 L 522,546 L 524,544 L 525,544 L 537,532 L 537,531 L 539,529 L 539,528 L 541,526 L 541,525 L 542,524 L 542,523 L 544,521 L 544,520 L 545,519 L 545,518 L 546,517 L 546,516 L 547,515 L 547,513 L 548,512 L 548,510 L 549,509 L 549,507 L 550,506 L 550,504 L 551,503 L 551,501 L 552,500 L 552,497 L 553,496 L 553,492 L 554,491 L 554,485 L 555,484 L 555,452 L 554,451 L 554,446 L 553,445 L 553,441 L 552,440 L 552,436 L 551,435 L 551,432 L 550,431 L 550,429 L 549,428 L 549,426 L 548,425 L 548,423 L 547,422 L 547,420 L 546,419 L 546,418 L 545,417 L 545,415 L 544,414 L 544,413 L 543,412 L 543,411 L 542,410 L 542,408 L 540,406 L 540,405 L 539,404 L 539,403 L 538,402 L 538,401 L 537,400 L 537,399 L 535,397 L 535,396 L 533,394 L 533,393 L 531,391 L 531,390 L 528,387 L 528,386 L 523,381 L 523,380 L 512,369 L 511,369 L 506,364 L 505,364 L 503,362 L 502,362 L 499,359 L 498,359 L 496,357 L 495,357 L 494,356 L 493,356 L 491,354 L 490,354 L 489,353 L 488,353 L 487,352 L 486,352 L 485,351 L 484,351 L 483,350 L 482,350 L 481,349 L 480,349 L 479,348 L 477,348 L 476,347 L 475,347 L 474,346 L 472,346 L 471,345 L 470,345 L 469,344 L 467,344 L 466,343 L 463,343 L 462,342 L 460,342 L 459,341 L 456,341 L 455,340 L 451,340 L 450,339 L 445,339 L 444,338 L 437,338 L 436,337 Z" fill="white" stroke="none" />
  </g>
</svg>
