<?xml version="1.0" standalone="no"?>
<!DOCTYPE svg PUBLIC "-//W3C//DTD SVG 20010904//EN"
 "http://www.w3.org/TR/2001/REC-SVG-20010904/DTD/svg10.dtd">
<svg version="1.0" xmlns="http://www.w3.org/2000/svg"
 width="512.000000pt" height="512.000000pt" viewBox="0 0 512.000000 512.000000"
 preserveAspectRatio="xMidYMid meet">

<g transform="translate(0.000000,512.000000) scale(0.100000,-0.100000)"
fill="#FFFFFF" stroke="none">
<path d="M1920 4757 c-264 -79 -484 -305 -547 -562 -10 -38 -18 -71 -19 -73
-1 -2 -30 27 -65 63 -83 86 -176 155 -274 201 -72 35 -80 37 -104 23 -14 -8
-32 -27 -41 -42 -24 -42 0 -74 93 -122 136 -70 235 -164 332 -313 45 -70 94
-169 110 -222 7 -24 7 -24 -11 -9 -51 45 -365 74 -520 49 -375 -60 -665 -356
-715 -727 -39 -294 82 -800 292 -1222 219 -441 415 -602 683 -561 117 17 257
66 326 112 51 33 66 39 79 30 80 -56 264 -132 319 -132 35 0 35 -18 -1 -78
-44 -74 -108 -194 -193 -362 -63 -126 -68 -139 -68 -200 0 -79 32 -148 93
-203 56 -51 104 -69 181 -70 58 -1 82 6 225 65 340 141 675 305 960 472 558
327 1276 887 1394 1088 103 177 118 322 45 443 l-34 58 117 -7 c358 -20 325
-20 356 4 35 28 37 77 5 108 -21 19 -44 22 -328 37 l-305 15 -30 31 -30 30 30
26 c17 15 108 98 203 186 163 151 172 161 172 197 0 45 -24 70 -69 70 -34 0
-30 3 -251 -199 -69 -63 -137 -126 -153 -140 l-27 -25 -27 26 -26 27 15 298
c9 183 11 308 5 325 -16 49 -91 57 -126 14 -10 -12 -18 -82 -27 -244 -6 -125
-13 -228 -13 -230 -1 -2 -20 12 -42 32 -106 91 -286 93 -459 6 -94 -47 -171
-113 -398 -338 l-218 -217 17 90 c10 50 23 141 30 202 28 270 -51 512 -229
704 -178 192 -412 289 -666 276 -148 -7 -276 -38 -298 -71 -16 -24 -8 -73 17
-96 l25 -23 102 24 c125 29 269 31 368 5 251 -67 446 -268 512 -528 18 -72 20
-101 15 -228 -6 -159 -27 -274 -83 -475 l-37 -130 -107 -130 c-139 -169 -265
-339 -408 -553 l-116 -173 -46 7 c-95 12 -202 47 -277 90 -128 73 -167 74
-280 6 -162 -97 -350 -125 -465 -69 -115 56 -243 237 -364 511 -150 343 -235
682 -237 946 -1 150 14 217 77 345 146 298 466 436 854 369 118 -20 141 -17
168 23 l22 33 16 -88 c16 -86 21 -226 10 -255 -4 -12 -12 -13 -36 -7 -39 12
-108 53 -132 79 -28 31 -79 28 -105 -5 -33 -42 -27 -72 23 -119 182 -169 525
-163 686 11 46 50 50 75 15 109 -35 36 -76 33 -122 -9 -43 -38 -82 -59 -135
-74 l-36 -10 5 72 c7 90 -10 221 -44 334 -14 48 -28 95 -30 105 -4 11 0 17 10
17 9 0 60 23 114 50 309 158 484 472 448 805 -12 117 -50 135 -195 92z m60
-184 c-1 -142 -78 -327 -179 -429 -75 -76 -148 -127 -227 -159 l-59 -24 -3 58
c-9 180 113 400 286 515 58 38 150 84 175 85 4 1 7 -20 7 -46z m1824 -1634
c24 -11 545 -578 581 -632 13 -20 18 -46 18 -88 -1 -71 -46 -174 -113 -257
-41 -51 -312 -292 -328 -292 -4 0 -70 70 -147 155 -81 91 -148 158 -162 162
-52 12 -103 -38 -90 -89 4 -13 65 -87 138 -166 72 -79 130 -145 128 -146 -78
-70 -419 -317 -565 -409 l-42 -26 -128 141 c-70 77 -139 144 -152 149 -49 19
-92 -13 -92 -67 0 -30 14 -50 111 -154 60 -66 114 -122 120 -125 5 -4 9 -10 9
-15 0 -19 -604 -348 -688 -375 -21 -6 -38 7 -131 99 -96 94 -112 106 -143 106
-52 0 -86 -47 -68 -95 5 -13 44 -61 86 -105 43 -45 73 -84 68 -89 -5 -4 -75
-35 -156 -69 -168 -71 -209 -77 -257 -37 -34 29 -56 84 -46 117 16 53 249 482
362 665 l44 72 87 -92 c171 -180 167 -177 201 -177 41 0 71 31 71 73 0 27 -20
55 -134 182 -133 149 -134 150 -119 175 77 122 448 599 472 608 4 1 66 -61
136 -138 71 -78 137 -145 146 -151 52 -27 109 2 109 57 0 35 -13 53 -199 259
-44 50 -81 93 -81 97 0 12 502 518 514 517 6 0 72 -67 146 -149 74 -81 147
-153 161 -160 32 -14 76 -4 89 20 27 51 15 73 -123 223 -73 78 -137 148 -141
155 -7 12 52 47 119 68 50 16 156 18 189 3z"/>
<path d="M480 2953 c-21 -26 -22 -35 -16 -128 17 -268 95 -523 229 -746 74
-122 95 -148 134 -155 26 -5 37 -1 57 19 14 15 26 37 26 49 0 13 -25 62 -55
108 -146 224 -222 455 -241 733 -8 116 -25 147 -79 147 -25 0 -39 -7 -55 -27z"/>
</g>
</svg>